<svg width="1920" height="585" viewBox="0 0 1920 585" fill="none" xmlns="http://www.w3.org/2000/svg">
<g opacity="0.15">
<path d="M0 420C167.833 502.667 594.6 645.2 959 554C1323.4 462.8 1751.5 492 1920 518" stroke="#050505" stroke-width="2"/>
<path d="M0 74.0418C178.833 26.3751 626.5 -46.3582 986.5 44.0418C1346.5 134.442 1758.83 88.3751 1920 54.0418" stroke="#0085FF" stroke-width="2"/>
<path d="M0 83.0712C178.31 41.6109 624.981 -20.8716 985.19 60.8807C1345.4 142.633 1758.48 100.151 1920 68.6903" stroke="#007FF3" stroke-width="2"/>
<path d="M0 92.1652C177.786 56.9112 623.462 4.67949 983.881 77.7843C1344.3 150.889 1758.13 111.991 1920 83.4033" stroke="#0178E7" stroke-width="2"/>
<path d="M0 101.359C177.262 72.3112 621.943 30.3302 982.571 94.7874C1343.2 159.245 1757.79 123.93 1920 98.216" stroke="#0172DB" stroke-width="2"/>
<path d="M0 110.718C176.738 87.8764 620.424 56.1463 981.262 111.956C1342.1 167.765 1757.44 136.035 1920 113.194" stroke="#016CCF" stroke-width="2"/>
<path d="M0 120.381C176.214 103.746 618.905 82.2669 979.952 129.429C1341 176.591 1757.09 148.445 1920 128.476" stroke="#0166C4" stroke-width="2"/>
<path d="M0 130.701C175.69 120.273 617.386 109.044 978.643 147.558C1339.9 186.073 1756.74 161.511 1920 144.416" stroke="#0260B8" stroke-width="2"/>
<path d="M0 142.848C175.167 138.626 615.867 137.648 977.333 167.515C1338.8 197.382 1756.39 176.404 1920 162.182" stroke="#025AAC" stroke-width="2"/>
<path d="M0 160.619C174.643 162.603 614.348 171.876 976.024 193.095C1337.7 214.314 1756.04 196.921 1920 185.571" stroke="#0254A0" stroke-width="2"/>
<path d="M0 180.571C174.119 188.762 612.829 208.286 974.714 220.857C1336.6 233.429 1755.69 219.619 1920 211.143" stroke="#024E94" stroke-width="2"/>
<path d="M0 200.524C173.595 214.921 611.31 244.695 973.405 248.619C1335.5 252.543 1755.34 242.317 1920 236.714" stroke="#034888" stroke-width="2"/>
<path d="M0 220.476C173.071 241.079 609.79 281.105 972.095 276.381C1334.4 271.657 1754.99 265.016 1920 262.286" stroke="#03427C" stroke-width="2"/>
<path d="M0 240.429C172.548 267.238 608.271 317.514 970.786 304.143C1333.3 290.771 1754.64 287.714 1920 287.857" stroke="#033C70" stroke-width="2"/>
<path d="M0 260.381C172.024 293.397 606.752 353.924 969.476 331.905C1332.2 309.886 1754.29 310.413 1920 313.429" stroke="#033664" stroke-width="2"/>
<path d="M0 280.333C171.5 319.556 605.233 390.333 968.167 359.667C1331.1 329 1753.94 333.111 1920 339" stroke="#043059" stroke-width="2"/>
<path d="M0 300.286C170.976 345.714 603.714 426.743 966.857 387.429C1330 348.114 1753.6 355.81 1920 364.571" stroke="#042A4D" stroke-width="2"/>
<path d="M0 320.238C170.452 371.873 602.195 463.152 965.548 415.19C1328.9 367.229 1753.25 378.508 1920 390.143" stroke="#042441" stroke-width="2"/>
<path d="M0 340.19C169.929 398.032 600.676 499.562 964.238 442.952C1327.8 386.343 1752.9 401.206 1920 415.714" stroke="#041E35" stroke-width="2"/>
<path d="M0 360.143C169.405 424.19 599.157 535.971 962.929 470.714C1326.7 405.457 1752.55 423.905 1920 441.286" stroke="#051729" stroke-width="2"/>
<path d="M0 380.095C168.881 450.349 597.638 572.381 961.619 498.476C1325.6 424.571 1752.2 446.603 1920 466.857" stroke="#05111D" stroke-width="2"/>
<path d="M0 400.048C168.357 476.508 596.119 608.79 960.31 526.238C1324.5 443.686 1751.85 469.302 1920 492.429" stroke="#050B11" stroke-width="2"/>
</g>
</svg>
