<svg width="1133" height="492" viewBox="0 0 1133 492" fill="none" xmlns="http://www.w3.org/2000/svg">
<path d="M140 0V372H1133" stroke="#0085FF" stroke-width="4"/>
<path d="M21.225 236.908C21.225 239.774 20.2917 242.349 18.425 244.633L15.2 243.058C16.1333 241.858 16.8083 240.724 17.225 239.658C17.6417 238.591 17.85 237.658 17.85 236.858C17.85 235.124 17.2667 234.258 16.1 234.258C15.4667 234.258 14.9708 234.558 14.6125 235.158C14.2542 235.758 13.9333 236.658 13.65 237.858C13.1167 239.608 12.6583 240.808 12.275 241.458C11.4083 242.874 10.1167 243.583 8.4 243.583C6.71667 243.583 5.425 242.933 4.525 241.633C3.625 240.333 3.175 238.724 3.175 236.808C3.175 234.358 3.81667 232.141 5.1 230.158L8.375 231.683C7.175 233.816 6.575 235.633 6.575 237.133C6.575 238.599 7.06667 239.341 8.05 239.358C8.6 239.358 9.0625 239.087 9.4375 238.545C9.8125 237.995 10.1583 237.091 10.475 235.833L10.8125 234.733C10.8875 234.491 11.0542 234.045 11.3125 233.395C11.7292 232.362 12.3 231.549 13.025 230.958C13.7417 230.358 14.7 230.058 15.9 230.058C17.6 230.058 18.9125 230.691 19.8375 231.958C20.7625 233.224 21.225 234.874 21.225 236.908ZM21 211.065V215.79L13.825 220.84L16.6 223.34H21V227.29H3.5L3.5 223.34H11.65L3.5 216.09V211.49L10.775 218.09L21 211.065ZM21.275 201.025C21.275 203.675 20.4125 205.904 18.6875 207.712C16.9625 209.52 14.8083 210.425 12.225 210.425C9.64167 210.425 7.49583 209.529 5.7875 207.737C4.07917 205.945 3.225 203.708 3.225 201.025C3.225 198.325 4.0875 196.083 5.8125 194.3C7.5375 192.516 9.675 191.625 12.225 191.625C14.8083 191.625 16.9625 192.52 18.6875 194.312C20.4125 196.104 21.275 198.341 21.275 201.025ZM17.825 200.975C17.825 200.308 17.7042 199.658 17.4625 199.025C17.2208 198.391 16.8667 197.825 16.4 197.325C15.925 196.825 15.3417 196.425 14.65 196.125C13.95 195.825 13.1417 195.675 12.225 195.675C11.0417 195.675 10.0417 195.925 9.225 196.425C8.40833 196.925 7.77917 197.575 7.3375 198.375C6.89583 199.175 6.675 200.041 6.675 200.975C6.675 202.375 7.19167 203.625 8.225 204.725C9.25833 205.825 10.5917 206.375 12.225 206.375C13.875 206.375 15.2208 205.833 16.2625 204.75C17.3042 203.666 17.825 202.408 17.825 200.975ZM21 173.808V178.283L16 181.058V185.083H21V189.033H3.5L3.5 181.433C3.5 180.1 3.70417 178.891 4.1125 177.808C4.5125 176.716 5.17083 175.841 6.0875 175.183C6.97917 174.566 8.14167 174.258 9.575 174.258C12.2583 174.258 14.1417 175.35 15.225 177.533L21 173.808ZM12.7 181.433C12.7 179.15 11.7 178.008 9.7 178.008C7.75 178.008 6.775 179.15 6.775 181.433V185.083H12.7V181.433Z" fill="#0085FF"/>
<path d="M219.66 421.02V423H209.02V421.26L214.58 415.72C215.153 415.173 215.61 414.633 215.95 414.1C216.29 413.567 216.46 413.107 216.46 412.72C216.46 412.147 216.226 411.703 215.76 411.39C215.293 411.077 214.653 410.92 213.84 410.92C213.186 410.92 212.493 411.073 211.76 411.38C211.026 411.687 210.346 412.113 209.72 412.66L208.78 410.86C209.58 410.233 210.443 409.743 211.37 409.39C212.296 409.037 213.226 408.86 214.16 408.86C215.093 408.86 215.92 409.003 216.64 409.29C217.36 409.577 217.92 409.987 218.32 410.52C218.72 411.053 218.92 411.673 218.92 412.38C218.92 413.673 218.013 415.213 216.2 417L212.02 421.02H219.66ZM226.405 408.9C228.138 408.9 229.472 409.513 230.405 410.74C231.338 411.967 231.805 413.72 231.805 416C231.805 418.28 231.338 420.033 230.405 421.26C229.472 422.487 228.138 423.1 226.405 423.1C224.658 423.1 223.318 422.487 222.385 421.26C221.452 420.033 220.985 418.28 220.985 416C220.985 413.72 221.452 411.967 222.385 410.74C223.318 409.513 224.658 408.9 226.405 408.9ZM226.405 410.78C225.405 410.78 224.662 411.207 224.175 412.06C223.688 412.913 223.445 414.227 223.445 416C223.445 417.76 223.692 419.07 224.185 419.93C224.678 420.79 225.418 421.22 226.405 421.22C227.392 421.22 228.128 420.79 228.615 419.93C229.102 419.07 229.345 417.76 229.345 416C229.345 414.227 229.102 412.913 228.615 412.06C228.128 411.207 227.392 410.78 226.405 410.78ZM238.69 408.9C240.423 408.9 241.757 409.513 242.69 410.74C243.623 411.967 244.09 413.72 244.09 416C244.09 418.28 243.623 420.033 242.69 421.26C241.757 422.487 240.423 423.1 238.69 423.1C236.943 423.1 235.603 422.487 234.67 421.26C233.737 420.033 233.27 418.28 233.27 416C233.27 413.72 233.737 411.967 234.67 410.74C235.603 409.513 236.943 408.9 238.69 408.9ZM238.69 410.78C237.69 410.78 236.947 411.207 236.46 412.06C235.973 412.913 235.73 414.227 235.73 416C235.73 417.76 235.977 419.07 236.47 419.93C236.963 420.79 237.703 421.22 238.69 421.22C239.677 421.22 240.413 420.79 240.9 419.93C241.387 419.07 241.63 417.76 241.63 416C241.63 414.227 241.387 412.913 240.9 412.06C240.413 411.207 239.677 410.78 238.69 410.78ZM246.975 420.26C247.402 420.54 247.888 420.757 248.435 420.91C248.982 421.063 249.522 421.14 250.055 421.14C251.375 421.14 252.352 420.7 252.985 419.82C253.618 418.94 253.935 417.777 253.935 416.33V416.32C253.935 416.32 253.935 416.317 253.935 416.31V416.3C253.935 416.3 253.935 416.297 253.935 416.29V416.26C253.935 416.26 253.935 416.257 253.935 416.25V416.21C253.935 416.21 253.935 416.207 253.935 416.2V416.1C253.935 416.1 253.935 416.097 253.935 416.09V416.06C253.562 416.713 253.055 417.21 252.415 417.55C251.775 417.89 251.015 418.06 250.135 418.06C248.748 418.06 247.655 417.657 246.855 416.85C246.055 416.043 245.655 414.953 245.655 413.58C245.655 412.633 245.858 411.807 246.265 411.1C246.672 410.393 247.242 409.85 247.975 409.47C248.708 409.09 249.568 408.9 250.555 408.9C251.728 408.9 252.742 409.17 253.595 409.71C254.448 410.25 255.102 411.03 255.555 412.05C256.008 413.07 256.235 414.287 256.235 415.7C256.235 417.18 255.988 418.48 255.495 419.6C255.002 420.72 254.302 421.583 253.395 422.19C252.488 422.797 251.428 423.1 250.215 423.1C249.522 423.1 248.798 423.003 248.045 422.81C247.292 422.617 246.628 422.36 246.055 422.04L246.975 420.26ZM250.675 410.92C249.822 410.92 249.138 411.16 248.625 411.64C248.112 412.12 247.855 412.773 247.855 413.6C247.855 414.4 248.098 415.033 248.585 415.5C249.072 415.967 249.735 416.2 250.575 416.2C251.495 416.2 252.222 415.937 252.755 415.41C253.288 414.883 253.555 414.24 253.555 413.48C253.555 413.053 253.448 412.643 253.235 412.25C253.022 411.857 252.698 411.537 252.265 411.29C251.832 411.043 251.302 410.92 250.675 410.92Z" fill="white"/>
<path d="M445.66 421.02V423H435.02V421.26L440.58 415.72C441.153 415.173 441.61 414.633 441.95 414.1C442.29 413.567 442.46 413.107 442.46 412.72C442.46 412.147 442.226 411.703 441.76 411.39C441.293 411.077 440.653 410.92 439.84 410.92C439.186 410.92 438.493 411.073 437.76 411.38C437.026 411.687 436.346 412.113 435.72 412.66L434.78 410.86C435.58 410.233 436.443 409.743 437.37 409.39C438.296 409.037 439.226 408.86 440.16 408.86C441.093 408.86 441.92 409.003 442.64 409.29C443.36 409.577 443.92 409.987 444.32 410.52C444.72 411.053 444.92 411.673 444.92 412.38C444.92 413.673 444.013 415.213 442.2 417L438.02 421.02H445.66ZM452.405 408.9C454.138 408.9 455.472 409.513 456.405 410.74C457.338 411.967 457.805 413.72 457.805 416C457.805 418.28 457.338 420.033 456.405 421.26C455.472 422.487 454.138 423.1 452.405 423.1C450.658 423.1 449.318 422.487 448.385 421.26C447.452 420.033 446.985 418.28 446.985 416C446.985 413.72 447.452 411.967 448.385 410.74C449.318 409.513 450.658 408.9 452.405 408.9ZM452.405 410.78C451.405 410.78 450.662 411.207 450.175 412.06C449.688 412.913 449.445 414.227 449.445 416C449.445 417.76 449.692 419.07 450.185 419.93C450.678 420.79 451.418 421.22 452.405 421.22C453.392 421.22 454.128 420.79 454.615 419.93C455.102 419.07 455.345 417.76 455.345 416C455.345 414.227 455.102 412.913 454.615 412.06C454.128 411.207 453.392 410.78 452.405 410.78ZM466 423H463.64V411.1H460.62V408.98H466V423ZM482.515 421.02V423H471.875V421.26L477.435 415.72C478.008 415.173 478.465 414.633 478.805 414.1C479.145 413.567 479.315 413.107 479.315 412.72C479.315 412.147 479.082 411.703 478.615 411.39C478.148 411.077 477.508 410.92 476.695 410.92C476.042 410.92 475.348 411.073 474.615 411.38C473.882 411.687 473.202 412.113 472.575 412.66L471.635 410.86C472.435 410.233 473.298 409.743 474.225 409.39C475.152 409.037 476.082 408.86 477.015 408.86C477.948 408.86 478.775 409.003 479.495 409.29C480.215 409.577 480.775 409.987 481.175 410.52C481.575 411.053 481.775 411.673 481.775 412.38C481.775 413.673 480.868 415.213 479.055 417L474.875 421.02H482.515Z" fill="white"/>
<path d="M671.66 421.02V423H661.02V421.26L666.58 415.72C667.153 415.173 667.61 414.633 667.95 414.1C668.29 413.567 668.46 413.107 668.46 412.72C668.46 412.147 668.226 411.703 667.76 411.39C667.293 411.077 666.653 410.92 665.84 410.92C665.186 410.92 664.493 411.073 663.76 411.38C663.026 411.687 662.346 412.113 661.72 412.66L660.78 410.86C661.58 410.233 662.443 409.743 663.37 409.39C664.296 409.037 665.226 408.86 666.16 408.86C667.093 408.86 667.92 409.003 668.64 409.29C669.36 409.577 669.92 409.987 670.32 410.52C670.72 411.053 670.92 411.673 670.92 412.38C670.92 413.673 670.013 415.213 668.2 417L664.02 421.02H671.66ZM678.405 408.9C680.138 408.9 681.472 409.513 682.405 410.74C683.338 411.967 683.805 413.72 683.805 416C683.805 418.28 683.338 420.033 682.405 421.26C681.472 422.487 680.138 423.1 678.405 423.1C676.658 423.1 675.318 422.487 674.385 421.26C673.452 420.033 672.985 418.28 672.985 416C672.985 413.72 673.452 411.967 674.385 410.74C675.318 409.513 676.658 408.9 678.405 408.9ZM678.405 410.78C677.405 410.78 676.662 411.207 676.175 412.06C675.688 412.913 675.445 414.227 675.445 416C675.445 417.76 675.692 419.07 676.185 419.93C676.678 420.79 677.418 421.22 678.405 421.22C679.392 421.22 680.128 420.79 680.615 419.93C681.102 419.07 681.345 417.76 681.345 416C681.345 414.227 681.102 412.913 680.615 412.06C680.128 411.207 679.392 410.78 678.405 410.78ZM692 423H689.64V411.1H686.62V408.98H692V423ZM703.055 414.14C704.095 414.14 705.012 414.323 705.805 414.69C706.598 415.057 707.208 415.56 707.635 416.2C708.062 416.84 708.275 417.567 708.275 418.38C708.275 419.327 708.052 420.157 707.605 420.87C707.158 421.583 706.528 422.133 705.715 422.52C704.902 422.907 703.955 423.1 702.875 423.1C702.022 423.1 701.125 422.953 700.185 422.66C699.245 422.367 698.415 421.98 697.695 421.5L698.655 419.6C699.255 420.067 699.902 420.427 700.595 420.68C701.288 420.933 701.975 421.06 702.655 421.06C703.602 421.06 704.355 420.833 704.915 420.38C705.475 419.927 705.755 419.32 705.755 418.56C705.755 417.813 705.478 417.237 704.925 416.83C704.372 416.423 703.555 416.22 702.475 416.22C702.008 416.22 701.392 416.24 700.625 416.28C699.858 416.32 699.248 416.367 698.795 416.42V409H707.675V411.1H700.995V414.14H703.055Z" fill="white"/>
<path d="M897.66 421.02V423H887.02V421.26L892.58 415.72C893.153 415.173 893.61 414.633 893.95 414.1C894.29 413.567 894.46 413.107 894.46 412.72C894.46 412.147 894.226 411.703 893.76 411.39C893.293 411.077 892.653 410.92 891.84 410.92C891.186 410.92 890.493 411.073 889.76 411.38C889.026 411.687 888.346 412.113 887.72 412.66L886.78 410.86C887.58 410.233 888.443 409.743 889.37 409.39C890.296 409.037 891.226 408.86 892.16 408.86C893.093 408.86 893.92 409.003 894.64 409.29C895.36 409.577 895.92 409.987 896.32 410.52C896.72 411.053 896.92 411.673 896.92 412.38C896.92 413.673 896.013 415.213 894.2 417L890.02 421.02H897.66ZM904.405 408.9C906.138 408.9 907.472 409.513 908.405 410.74C909.338 411.967 909.805 413.72 909.805 416C909.805 418.28 909.338 420.033 908.405 421.26C907.472 422.487 906.138 423.1 904.405 423.1C902.658 423.1 901.318 422.487 900.385 421.26C899.452 420.033 898.985 418.28 898.985 416C898.985 413.72 899.452 411.967 900.385 410.74C901.318 409.513 902.658 408.9 904.405 408.9ZM904.405 410.78C903.405 410.78 902.662 411.207 902.175 412.06C901.688 412.913 901.445 414.227 901.445 416C901.445 417.76 901.692 419.07 902.185 419.93C902.678 420.79 903.418 421.22 904.405 421.22C905.392 421.22 906.128 420.79 906.615 419.93C907.102 419.07 907.345 417.76 907.345 416C907.345 414.227 907.102 412.913 906.615 412.06C906.128 411.207 905.392 410.78 904.405 410.78ZM918 423H915.64V411.1H912.62V408.98H918V423ZM928.935 408.9C930.375 408.9 931.512 409.223 932.345 409.87C933.178 410.517 933.595 411.407 933.595 412.54C933.595 413.207 933.415 413.8 933.055 414.32C932.695 414.84 932.195 415.24 931.555 415.52C932.408 415.813 933.078 416.273 933.565 416.9C934.052 417.527 934.295 418.253 934.295 419.08C934.295 420.32 933.815 421.3 932.855 422.02C931.895 422.74 930.595 423.1 928.955 423.1C927.315 423.1 926.015 422.743 925.055 422.03C924.095 421.317 923.615 420.347 923.615 419.12C923.615 418.28 923.868 417.543 924.375 416.91C924.882 416.277 925.575 415.813 926.455 415.52C925.775 415.213 925.245 414.793 924.865 414.26C924.485 413.727 924.295 413.12 924.295 412.44C924.295 411.347 924.712 410.483 925.545 409.85C926.378 409.217 927.508 408.9 928.935 408.9ZM928.955 410.6C928.115 410.6 927.462 410.78 926.995 411.14C926.528 411.5 926.295 412.007 926.295 412.66C926.295 413.313 926.528 413.82 926.995 414.18C927.462 414.54 928.115 414.72 928.955 414.72C929.795 414.72 930.445 414.54 930.905 414.18C931.365 413.82 931.595 413.313 931.595 412.66C931.595 412.007 931.365 411.5 930.905 411.14C930.445 410.78 929.795 410.6 928.955 410.6ZM928.935 416.56C927.948 416.56 927.185 416.76 926.645 417.16C926.105 417.56 925.835 418.127 925.835 418.86C925.835 419.62 926.108 420.207 926.655 420.62C927.202 421.033 927.968 421.24 928.955 421.24C929.942 421.24 930.708 421.033 931.255 420.62C931.802 420.207 932.075 419.627 932.075 418.88C932.075 418.147 931.798 417.577 931.245 417.17C930.692 416.763 929.922 416.56 928.935 416.56Z" fill="white"/>
<path d="M70.6023 330.88C71.9356 330.987 72.9989 331.37 73.7923 332.03C74.5856 332.69 74.9823 333.567 74.9823 334.66C74.9823 335.527 74.7589 336.297 74.3123 336.97C73.8656 337.643 73.2256 338.167 72.3923 338.54C71.5589 338.913 70.5889 339.1 69.4823 339.1C68.5623 339.1 67.6456 338.963 66.7323 338.69C65.8189 338.417 65.0423 338.047 64.4023 337.58L65.3823 335.7C65.9289 336.153 66.5456 336.503 67.2323 336.75C67.9189 336.997 68.6156 337.12 69.3223 337.12C70.3756 337.12 71.1989 336.9 71.7923 336.46C72.3856 336.02 72.6823 335.433 72.6823 334.7C72.6823 333.953 72.3856 333.383 71.7923 332.99C71.1989 332.597 70.3623 332.4 69.2823 332.4H67.2423V330.94L71.2023 327.08H65.1023L65.0823 325H74.2823V326.48L69.8223 330.82L70.6023 330.88ZM82.1274 330.14C83.1674 330.14 84.0841 330.323 84.8774 330.69C85.6708 331.057 86.2808 331.56 86.7074 332.2C87.1341 332.84 87.3474 333.567 87.3474 334.38C87.3474 335.327 87.1241 336.157 86.6774 336.87C86.2308 337.583 85.6008 338.133 84.7874 338.52C83.9741 338.907 83.0274 339.1 81.9474 339.1C81.0941 339.1 80.1974 338.953 79.2574 338.66C78.3174 338.367 77.4874 337.98 76.7674 337.5L77.7274 335.6C78.3274 336.067 78.9741 336.427 79.6674 336.68C80.3608 336.933 81.0474 337.06 81.7274 337.06C82.6741 337.06 83.4274 336.833 83.9874 336.38C84.5474 335.927 84.8274 335.32 84.8274 334.56C84.8274 333.813 84.5508 333.237 83.9974 332.83C83.4441 332.423 82.6274 332.22 81.5474 332.22C81.0808 332.22 80.4641 332.24 79.6974 332.28C78.9308 332.32 78.3208 332.367 77.8674 332.42V325H86.7474V327.1H80.0674V330.14H82.1274ZM94.3326 324.9C96.0659 324.9 97.3992 325.513 98.3326 326.74C99.2659 327.967 99.7326 329.72 99.7326 332C99.7326 334.28 99.2659 336.033 98.3326 337.26C97.3992 338.487 96.0659 339.1 94.3326 339.1C92.5859 339.1 91.2459 338.487 90.3126 337.26C89.3792 336.033 88.9126 334.28 88.9126 332C88.9126 329.72 89.3792 327.967 90.3126 326.74C91.2459 325.513 92.5859 324.9 94.3326 324.9ZM94.3326 326.78C93.3326 326.78 92.5892 327.207 92.1026 328.06C91.6159 328.913 91.3726 330.227 91.3726 332C91.3726 333.76 91.6192 335.07 92.1126 335.93C92.6059 336.79 93.3459 337.22 94.3326 337.22C95.3192 337.22 96.0559 336.79 96.5426 335.93C97.0292 335.07 97.2726 333.76 97.2726 332C97.2726 330.227 97.0292 328.913 96.5426 328.06C96.0559 327.207 95.3192 326.78 94.3326 326.78Z" fill="white"/>
<path d="M77.2923 196.48V198.58H75.2123V202H73.0123V198.58H66.1923V196.8L70.9523 188H73.2323L68.7323 196.48H73.0123V193.14H75.2123V196.48H77.2923ZM84.0474 187.9C85.7808 187.9 87.1141 188.513 88.0474 189.74C88.9808 190.967 89.4474 192.72 89.4474 195C89.4474 197.28 88.9808 199.033 88.0474 200.26C87.1141 201.487 85.7808 202.1 84.0474 202.1C82.3008 202.1 80.9608 201.487 80.0274 200.26C79.0941 199.033 78.6274 197.28 78.6274 195C78.6274 192.72 79.0941 190.967 80.0274 189.74C80.9608 188.513 82.3008 187.9 84.0474 187.9ZM84.0474 189.78C83.0474 189.78 82.3041 190.207 81.8174 191.06C81.3308 191.913 81.0874 193.227 81.0874 195C81.0874 196.76 81.3341 198.07 81.8274 198.93C82.3208 199.79 83.0608 200.22 84.0474 200.22C85.0341 200.22 85.7708 199.79 86.2574 198.93C86.7441 198.07 86.9874 196.76 86.9874 195C86.9874 193.227 86.7441 191.913 86.2574 191.06C85.7708 190.207 85.0341 189.78 84.0474 189.78ZM96.3326 187.9C98.0659 187.9 99.3992 188.513 100.333 189.74C101.266 190.967 101.733 192.72 101.733 195C101.733 197.28 101.266 199.033 100.333 200.26C99.3992 201.487 98.0659 202.1 96.3326 202.1C94.5859 202.1 93.2459 201.487 92.3126 200.26C91.3792 199.033 90.9126 197.28 90.9126 195C90.9126 192.72 91.3792 190.967 92.3126 189.74C93.2459 188.513 94.5859 187.9 96.3326 187.9ZM96.3326 189.78C95.3326 189.78 94.5892 190.207 94.1026 191.06C93.6159 191.913 93.3726 193.227 93.3726 195C93.3726 196.76 93.6192 198.07 94.1126 198.93C94.6059 199.79 95.3459 200.22 96.3326 200.22C97.3192 200.22 98.0559 199.79 98.5426 198.93C99.0292 198.07 99.2726 196.76 99.2726 195C99.2726 193.227 99.0292 191.913 98.5426 191.06C98.0559 190.207 97.3192 189.78 96.3326 189.78Z" fill="white"/>
<path d="M77.2923 77.48V79.58H75.2123V83H73.0123V79.58H66.1923V77.8L70.9523 69H73.2323L68.7323 77.48H73.0123V74.14H75.2123V77.48H77.2923ZM84.1274 74.14C85.1674 74.14 86.0841 74.3233 86.8774 74.69C87.6708 75.0567 88.2808 75.56 88.7074 76.2C89.1341 76.84 89.3474 77.5667 89.3474 78.38C89.3474 79.3267 89.1241 80.1567 88.6774 80.87C88.2308 81.5833 87.6008 82.1333 86.7874 82.52C85.9741 82.9067 85.0274 83.1 83.9474 83.1C83.0941 83.1 82.1974 82.9533 81.2574 82.66C80.3174 82.3667 79.4874 81.98 78.7674 81.5L79.7274 79.6C80.3274 80.0667 80.9741 80.4267 81.6674 80.68C82.3608 80.9333 83.0474 81.06 83.7274 81.06C84.6741 81.06 85.4274 80.8333 85.9874 80.38C86.5474 79.9267 86.8274 79.32 86.8274 78.56C86.8274 77.8133 86.5508 77.2367 85.9974 76.83C85.4441 76.4233 84.6274 76.22 83.5474 76.22C83.0808 76.22 82.4641 76.24 81.6974 76.28C80.9308 76.32 80.3208 76.3667 79.8674 76.42V69H88.7474V71.1H82.0674V74.14H84.1274ZM96.3326 68.9C98.0659 68.9 99.3992 69.5133 100.333 70.74C101.266 71.9667 101.733 73.72 101.733 76C101.733 78.28 101.266 80.0333 100.333 81.26C99.3992 82.4867 98.0659 83.1 96.3326 83.1C94.5859 83.1 93.2459 82.4867 92.3126 81.26C91.3792 80.0333 90.9126 78.28 90.9126 76C90.9126 73.72 91.3792 71.9667 92.3126 70.74C93.2459 69.5133 94.5859 68.9 96.3326 68.9ZM96.3326 70.78C95.3326 70.78 94.5892 71.2067 94.1026 72.06C93.6159 72.9133 93.3726 74.2267 93.3726 76C93.3726 77.76 93.6192 79.07 94.1126 79.93C94.6059 80.79 95.3459 81.22 96.3326 81.22C97.3192 81.22 98.0559 80.79 98.5426 79.93C99.0292 79.07 99.2726 77.76 99.2726 76C99.2726 74.2267 99.0292 72.9133 98.5426 72.06C98.0559 71.2067 97.3192 70.78 96.3326 70.78Z" fill="white"/>
<path d="M223 196L450.5 205.5H684.5L922 260.5" stroke="#0085FF" stroke-width="4"/>
<path d="M898.602 224.88C899.936 224.987 900.999 225.37 901.792 226.03C902.586 226.69 902.982 227.567 902.982 228.66C902.982 229.527 902.759 230.297 902.312 230.97C901.866 231.643 901.226 232.167 900.392 232.54C899.559 232.913 898.589 233.1 897.482 233.1C896.562 233.1 895.646 232.963 894.732 232.69C893.819 232.417 893.042 232.047 892.402 231.58L893.382 229.7C893.929 230.153 894.546 230.503 895.232 230.75C895.919 230.997 896.616 231.12 897.322 231.12C898.376 231.12 899.199 230.9 899.792 230.46C900.386 230.02 900.682 229.433 900.682 228.7C900.682 227.953 900.386 227.383 899.792 226.99C899.199 226.597 898.362 226.4 897.282 226.4H895.242V224.94L899.202 221.08H893.102L893.082 219H902.282V220.48L897.822 224.82L898.602 224.88ZM904.827 219H915.487V220.8L909.587 233H907.087L912.827 221.1H906.947L906.927 223.08H904.827V219ZM923.643 233H921.283V221.1H918.263V218.98H923.643V233Z" fill="white"/>
<path d="M672.602 177.88C673.936 177.987 674.999 178.37 675.792 179.03C676.586 179.69 676.982 180.567 676.982 181.66C676.982 182.527 676.759 183.297 676.312 183.97C675.866 184.643 675.226 185.167 674.392 185.54C673.559 185.913 672.589 186.1 671.482 186.1C670.562 186.1 669.646 185.963 668.732 185.69C667.819 185.417 667.042 185.047 666.402 184.58L667.382 182.7C667.929 183.153 668.546 183.503 669.232 183.75C669.919 183.997 670.616 184.12 671.322 184.12C672.376 184.12 673.199 183.9 673.792 183.46C674.386 183.02 674.682 182.433 674.682 181.7C674.682 180.953 674.386 180.383 673.792 179.99C673.199 179.597 672.362 179.4 671.282 179.4H669.242V177.94L673.202 174.08H667.102L667.082 172H676.282V173.48L671.822 177.82L672.602 177.88ZM680.047 183.26C680.474 183.54 680.961 183.757 681.507 183.91C682.054 184.063 682.594 184.14 683.127 184.14C684.447 184.14 685.424 183.7 686.057 182.82C686.691 181.94 687.007 180.777 687.007 179.33V179.32C687.007 179.32 687.007 179.317 687.007 179.31V179.3C687.007 179.3 687.007 179.297 687.007 179.29V179.26C687.007 179.26 687.007 179.257 687.007 179.25V179.21C687.007 179.21 687.007 179.207 687.007 179.2V179.1C687.007 179.1 687.007 179.097 687.007 179.09V179.06C686.634 179.713 686.127 180.21 685.487 180.55C684.847 180.89 684.087 181.06 683.207 181.06C681.821 181.06 680.727 180.657 679.927 179.85C679.127 179.043 678.727 177.953 678.727 176.58C678.727 175.633 678.931 174.807 679.337 174.1C679.744 173.393 680.314 172.85 681.047 172.47C681.781 172.09 682.641 171.9 683.627 171.9C684.801 171.9 685.814 172.17 686.667 172.71C687.521 173.25 688.174 174.03 688.627 175.05C689.081 176.07 689.307 177.287 689.307 178.7C689.307 180.18 689.061 181.48 688.567 182.6C688.074 183.72 687.374 184.583 686.467 185.19C685.561 185.797 684.501 186.1 683.287 186.1C682.594 186.1 681.871 186.003 681.117 185.81C680.364 185.617 679.701 185.36 679.127 185.04L680.047 183.26ZM683.747 173.92C682.894 173.92 682.211 174.16 681.697 174.64C681.184 175.12 680.927 175.773 680.927 176.6C680.927 177.4 681.171 178.033 681.657 178.5C682.144 178.967 682.807 179.2 683.647 179.2C684.567 179.2 685.294 178.937 685.827 178.41C686.361 177.883 686.627 177.24 686.627 176.48C686.627 176.053 686.521 175.643 686.307 175.25C686.094 174.857 685.771 174.537 685.337 174.29C684.904 174.043 684.374 173.92 683.747 173.92ZM691.113 172H701.773V173.8L695.873 186H693.373L699.113 174.1H693.233L693.213 176.08H691.113V172Z" fill="white"/>
<path d="M446.602 172.88C447.936 172.987 448.999 173.37 449.792 174.03C450.586 174.69 450.982 175.567 450.982 176.66C450.982 177.527 450.759 178.297 450.312 178.97C449.866 179.643 449.226 180.167 448.392 180.54C447.559 180.913 446.589 181.1 445.482 181.1C444.562 181.1 443.646 180.963 442.732 180.69C441.819 180.417 441.042 180.047 440.402 179.58L441.382 177.7C441.929 178.153 442.546 178.503 443.232 178.75C443.919 178.997 444.616 179.12 445.322 179.12C446.376 179.12 447.199 178.9 447.792 178.46C448.386 178.02 448.682 177.433 448.682 176.7C448.682 175.953 448.386 175.383 447.792 174.99C447.199 174.597 446.362 174.4 445.282 174.4H443.242V172.94L447.202 169.08H441.102L441.082 167H450.282V168.48L445.822 172.82L446.602 172.88ZM454.047 178.26C454.474 178.54 454.961 178.757 455.507 178.91C456.054 179.063 456.594 179.14 457.127 179.14C458.447 179.14 459.424 178.7 460.057 177.82C460.691 176.94 461.007 175.777 461.007 174.33V174.32C461.007 174.32 461.007 174.317 461.007 174.31V174.3C461.007 174.3 461.007 174.297 461.007 174.29V174.26C461.007 174.26 461.007 174.257 461.007 174.25V174.21C461.007 174.21 461.007 174.207 461.007 174.2V174.1C461.007 174.1 461.007 174.097 461.007 174.09V174.06C460.634 174.713 460.127 175.21 459.487 175.55C458.847 175.89 458.087 176.06 457.207 176.06C455.821 176.06 454.727 175.657 453.927 174.85C453.127 174.043 452.727 172.953 452.727 171.58C452.727 170.633 452.931 169.807 453.337 169.1C453.744 168.393 454.314 167.85 455.047 167.47C455.781 167.09 456.641 166.9 457.627 166.9C458.801 166.9 459.814 167.17 460.667 167.71C461.521 168.25 462.174 169.03 462.627 170.05C463.081 171.07 463.307 172.287 463.307 173.7C463.307 175.18 463.061 176.48 462.567 177.6C462.074 178.72 461.374 179.583 460.467 180.19C459.561 180.797 458.501 181.1 457.287 181.1C456.594 181.1 455.871 181.003 455.117 180.81C454.364 180.617 453.701 180.36 453.127 180.04L454.047 178.26ZM457.747 168.92C456.894 168.92 456.211 169.16 455.697 169.64C455.184 170.12 454.927 170.773 454.927 171.6C454.927 172.4 455.171 173.033 455.657 173.5C456.144 173.967 456.807 174.2 457.647 174.2C458.567 174.2 459.294 173.937 459.827 173.41C460.361 172.883 460.627 172.24 460.627 171.48C460.627 171.053 460.521 170.643 460.307 170.25C460.094 169.857 459.771 169.537 459.337 169.29C458.904 169.043 458.374 168.92 457.747 168.92ZM474.173 169.74C473.746 169.46 473.256 169.243 472.703 169.09C472.149 168.937 471.606 168.86 471.073 168.86C469.753 168.86 468.759 169.317 468.093 170.23C467.473 171.077 467.163 172.2 467.163 173.6C467.163 173.713 467.166 173.827 467.173 173.94C467.546 173.287 468.056 172.79 468.703 172.45C469.349 172.11 470.113 171.94 470.993 171.94C472.393 171.94 473.496 172.343 474.303 173.15C475.109 173.957 475.513 175.047 475.513 176.42C475.513 177.367 475.309 178.193 474.903 178.9C474.496 179.607 473.919 180.15 473.173 180.53C472.426 180.91 471.559 181.1 470.573 181.1C469.399 181.1 468.386 180.83 467.533 180.29C466.679 179.75 466.023 178.97 465.563 177.95C465.103 176.93 464.873 175.713 464.873 174.3C464.873 172.82 465.119 171.52 465.613 170.4C466.106 169.28 466.806 168.417 467.713 167.81C468.619 167.203 469.686 166.9 470.913 166.9C471.606 166.9 472.333 166.997 473.093 167.19C473.853 167.383 474.519 167.64 475.093 167.96L474.173 169.74ZM470.553 173.8C469.939 173.8 469.406 173.92 468.953 174.16C468.499 174.4 468.153 174.723 467.913 175.13C467.673 175.53 467.553 175.957 467.553 176.41V176.56C467.553 176.96 467.656 177.353 467.863 177.74C468.069 178.127 468.393 178.447 468.833 178.7C469.273 178.953 469.813 179.08 470.453 179.08C471.319 179.08 472.013 178.84 472.533 178.36C473.053 177.88 473.313 177.227 473.313 176.4C473.313 175.6 473.066 174.967 472.573 174.5C472.079 174.033 471.406 173.8 470.553 173.8Z" fill="white"/>
<path d="M225.292 167.48V169.58H223.212V173H221.012V169.58H214.192V167.8L218.952 159H221.232L216.732 167.48H221.012V164.14H223.212V167.48H225.292ZM232.047 158.9C233.781 158.9 235.114 159.513 236.047 160.74C236.981 161.967 237.447 163.72 237.447 166C237.447 168.28 236.981 170.033 236.047 171.26C235.114 172.487 233.781 173.1 232.047 173.1C230.301 173.1 228.961 172.487 228.027 171.26C227.094 170.033 226.627 168.28 226.627 166C226.627 163.72 227.094 161.967 228.027 160.74C228.961 159.513 230.301 158.9 232.047 158.9ZM232.047 160.78C231.047 160.78 230.304 161.207 229.817 162.06C229.331 162.913 229.087 164.227 229.087 166C229.087 167.76 229.334 169.07 229.827 169.93C230.321 170.79 231.061 171.22 232.047 171.22C233.034 171.22 233.771 170.79 234.257 169.93C234.744 169.07 234.987 167.76 234.987 166C234.987 164.227 234.744 162.913 234.257 162.06C233.771 161.207 233.034 160.78 232.047 160.78ZM249.873 171.02V173H239.233V171.26L244.793 165.72C245.366 165.173 245.823 164.633 246.163 164.1C246.503 163.567 246.673 163.107 246.673 162.72C246.673 162.147 246.439 161.703 245.973 161.39C245.506 161.077 244.866 160.92 244.053 160.92C243.399 160.92 242.706 161.073 241.973 161.38C241.239 161.687 240.559 162.113 239.933 162.66L238.993 160.86C239.793 160.233 240.656 159.743 241.583 159.39C242.509 159.037 243.439 158.86 244.373 158.86C245.306 158.86 246.133 159.003 246.853 159.29C247.573 159.577 248.133 159.987 248.533 160.52C248.933 161.053 249.133 161.673 249.133 162.38C249.133 163.673 248.226 165.213 246.413 167L242.233 171.02H249.873Z" fill="white"/>
<path d="M177.745 489.105C176.055 489.105 174.625 488.545 173.455 487.425L174.22 485.895C175.42 486.935 176.605 487.455 177.775 487.455C178.445 487.455 178.94 487.327 179.26 487.073C179.58 486.817 179.74 486.505 179.74 486.135C179.74 485.625 179.505 485.245 179.035 484.995C178.805 484.87 178.565 484.762 178.315 484.672C178.065 484.582 177.76 484.49 177.4 484.395C176.46 484.125 175.81 483.88 175.45 483.66C174.95 483.35 174.615 483.055 174.445 482.775C174.195 482.355 174.07 481.865 174.07 481.305C174.07 480.365 174.435 479.637 175.165 479.122C175.895 478.607 176.805 478.35 177.895 478.35C179.305 478.35 180.53 478.715 181.57 479.445L180.835 481.005C179.705 480.355 178.68 480.03 177.76 480.03C177.27 480.03 176.862 480.117 176.537 480.292C176.212 480.467 176.05 480.755 176.05 481.155C176.05 481.555 176.227 481.89 176.582 482.16C176.937 482.425 177.53 482.665 178.36 482.88C179.57 483.2 180.45 483.62 181 484.14C181.42 484.56 181.655 485.195 181.705 486.045C181.705 486.725 181.527 487.29 181.172 487.74C180.772 488.225 180.27 488.575 179.665 488.79C179.065 489 178.425 489.105 177.745 489.105ZM187.091 489.06C185.881 489.06 184.883 488.705 184.098 487.995C183.313 487.285 182.921 486.285 182.921 484.995C182.921 483.745 183.308 482.76 184.083 482.04C184.858 481.32 185.861 480.96 187.091 480.96C188.311 480.96 189.308 481.322 190.083 482.047C190.858 482.772 191.246 483.755 191.246 484.995C191.246 485.59 191.158 486.12 190.983 486.585C190.813 487.045 190.576 487.442 190.271 487.777C189.971 488.107 189.618 488.375 189.213 488.58C188.588 488.9 187.881 489.06 187.091 489.06ZM187.091 487.62C187.771 487.62 188.346 487.39 188.816 486.93C189.286 486.47 189.521 485.835 189.521 485.025C189.521 484.215 189.286 483.58 188.816 483.12C188.346 482.66 187.771 482.43 187.091 482.43C186.431 482.43 185.858 482.65 185.373 483.09C184.888 483.53 184.646 484.175 184.646 485.025C184.646 485.875 184.883 486.52 185.358 486.96C185.833 487.4 186.411 487.62 187.091 487.62ZM195.746 489.06C195.066 489.06 194.506 488.927 194.066 488.662C193.631 488.397 193.308 488.032 193.098 487.567C192.893 487.102 192.791 486.575 192.791 485.985V481.02H194.516V485.505C194.516 486.045 194.666 486.502 194.966 486.877C195.266 487.252 195.736 487.44 196.376 487.44C197.126 487.36 197.678 487.087 198.033 486.622C198.388 486.157 198.566 485.6 198.566 484.95V481.02H200.291V489H198.566V487.44C198.016 488.52 197.076 489.06 195.746 489.06ZM204.571 489H202.846V481.02H204.571V482.61C205.161 481.51 206.081 480.96 207.331 480.96V482.61C206.461 482.61 205.798 482.81 205.343 483.21C204.888 483.61 204.631 484.15 204.571 484.83V489ZM211.917 489.06C210.767 489.06 209.809 488.7 209.044 487.98C208.279 487.26 207.897 486.275 207.897 485.025C207.897 484.155 208.079 483.417 208.444 482.812C208.859 482.157 209.372 481.685 209.982 481.395C210.597 481.105 211.242 480.96 211.917 480.96C213.347 480.96 214.447 481.395 215.217 482.265L214.272 483.375C213.722 482.795 212.962 482.495 211.992 482.475C211.622 482.475 211.254 482.56 210.889 482.73C210.529 482.9 210.224 483.18 209.974 483.57C209.739 483.945 209.622 484.43 209.622 485.025C209.622 485.6 209.734 486.077 209.959 486.457C210.184 486.832 210.477 487.112 210.837 487.297C211.197 487.482 211.582 487.575 211.992 487.575C213.012 487.575 213.797 487.255 214.347 486.615L215.307 487.575C214.577 488.565 213.447 489.06 211.917 489.06ZM220.37 489.06C219.47 489.06 218.718 488.877 218.113 488.512C217.508 488.147 217.053 487.66 216.748 487.05C216.443 486.44 216.29 485.765 216.29 485.025C216.29 484.145 216.468 483.407 216.823 482.812C217.223 482.177 217.725 481.712 218.33 481.417C218.94 481.122 219.605 480.97 220.325 480.96C222.835 480.96 224.09 482.32 224.09 485.04L224.06 485.67H218.03C218.22 486.375 218.535 486.885 218.975 487.2C219.42 487.51 219.93 487.665 220.505 487.665C221.365 487.665 222.115 487.355 222.755 486.735L223.67 487.71C222.84 488.61 221.74 489.06 220.37 489.06ZM222.56 484.41C222.49 483.7 222.253 483.177 221.848 482.842C221.443 482.507 220.94 482.34 220.34 482.34C219.64 482.34 219.095 482.532 218.705 482.917C218.315 483.302 218.08 483.8 218 484.41H222.56ZM226.218 484.68C225.953 484.68 225.728 484.59 225.543 484.41C225.363 484.225 225.273 483.98 225.273 483.675C225.273 483.455 225.318 483.272 225.408 483.127C225.503 482.982 225.621 482.875 225.761 482.805C225.906 482.735 226.058 482.7 226.218 482.7C226.378 482.7 226.528 482.735 226.668 482.805C226.813 482.875 226.931 482.982 227.021 483.127C227.116 483.272 227.163 483.455 227.163 483.675C227.163 483.98 227.071 484.225 226.886 484.41C226.706 484.59 226.483 484.68 226.218 484.68ZM226.218 489.135C225.953 489.135 225.728 489.045 225.543 488.865C225.363 488.68 225.273 488.435 225.273 488.13C225.273 487.91 225.318 487.727 225.408 487.582C225.503 487.437 225.621 487.33 225.761 487.26C225.906 487.19 226.058 487.155 226.218 487.155C226.378 487.155 226.528 487.19 226.668 487.26C226.813 487.33 226.931 487.437 227.021 487.582C227.116 487.727 227.163 487.91 227.163 488.13C227.163 488.435 227.071 488.68 226.886 488.865C226.706 489.045 226.483 489.135 226.218 489.135ZM241.347 489H239.622V484.515C239.622 483.965 239.467 483.505 239.157 483.135C238.847 482.765 238.362 482.58 237.702 482.58C236.922 482.66 236.347 482.93 235.977 483.39C235.607 483.85 235.422 484.41 235.422 485.07V489H233.697V477.87H235.422V482.58C235.972 481.5 236.957 480.96 238.377 480.96C239.387 480.96 240.135 481.252 240.62 481.837C241.105 482.422 241.347 483.155 241.347 484.035V489ZM246.206 489.075C245.576 489.075 245.046 488.895 244.616 488.535C244.186 488.175 243.971 487.58 243.971 486.75V482.61H242.846V481.32H243.971V479.13H245.681V481.32H248.036V482.61H245.681V486.435C245.681 487.155 245.946 487.515 246.476 487.515C246.876 487.515 247.296 487.4 247.736 487.17L248.171 488.49C247.541 488.88 246.886 489.075 246.206 489.075ZM252.212 489.075C251.582 489.075 251.052 488.895 250.622 488.535C250.192 488.175 249.977 487.58 249.977 486.75V482.61H248.852V481.32H249.977V479.13H251.687V481.32H254.042V482.61H251.687V486.435C251.687 487.155 251.952 487.515 252.482 487.515C252.882 487.515 253.302 487.4 253.742 487.17L254.177 488.49C253.547 488.88 252.892 489.075 252.212 489.075ZM257.571 491.91H255.846V481.02H257.571V482.4C258.181 481.44 259.111 480.96 260.361 480.96C261.481 480.96 262.396 481.325 263.106 482.055C263.816 482.785 264.171 483.78 264.171 485.04C264.171 485.54 264.098 486.03 263.953 486.51C263.813 486.985 263.591 487.415 263.286 487.8C262.986 488.18 262.596 488.485 262.116 488.715C261.636 488.945 261.061 489.06 260.391 489.06C259.121 489.06 258.181 488.58 257.571 487.62V491.91ZM260.001 487.59C260.761 487.59 261.356 487.33 261.786 486.81C262.216 486.29 262.431 485.68 262.431 484.98C262.431 484.28 262.218 483.675 261.793 483.165C261.368 482.655 260.771 482.4 260.001 482.4C259.231 482.4 258.633 482.652 258.208 483.157C257.783 483.662 257.571 484.27 257.571 484.98C257.571 485.81 257.806 486.452 258.276 486.907C258.746 487.362 259.321 487.59 260.001 487.59ZM266.326 484.68C266.061 484.68 265.836 484.59 265.651 484.41C265.471 484.225 265.381 483.98 265.381 483.675C265.381 483.455 265.426 483.272 265.516 483.127C265.611 482.982 265.728 482.875 265.868 482.805C266.013 482.735 266.166 482.7 266.326 482.7C266.486 482.7 266.636 482.735 266.776 482.805C266.921 482.875 267.038 482.982 267.128 483.127C267.223 483.272 267.271 483.455 267.271 483.675C267.271 483.98 267.178 484.225 266.993 484.41C266.813 484.59 266.591 484.68 266.326 484.68ZM266.326 489.135C266.061 489.135 265.836 489.045 265.651 488.865C265.471 488.68 265.381 488.435 265.381 488.13C265.381 487.91 265.426 487.727 265.516 487.582C265.611 487.437 265.728 487.33 265.868 487.26C266.013 487.19 266.166 487.155 266.326 487.155C266.486 487.155 266.636 487.19 266.776 487.26C266.921 487.33 267.038 487.437 267.128 487.582C267.223 487.727 267.271 487.91 267.271 488.13C267.271 488.435 267.178 488.68 266.993 488.865C266.813 489.045 266.591 489.135 266.326 489.135ZM269.113 490.755H267.643L272.398 476.76H273.868L269.113 490.755ZM273.595 490.755H272.125L276.88 476.76H278.35L273.595 490.755ZM283.301 489.06C282.031 489.06 281.091 488.58 280.481 487.62V489H278.756V477.87H280.481V482.4C281.091 481.44 282.021 480.96 283.271 480.96C284.391 480.96 285.306 481.325 286.016 482.055C286.726 482.785 287.081 483.78 287.081 485.04C287.081 485.54 287.008 486.03 286.863 486.51C286.723 486.985 286.501 487.415 286.196 487.8C285.896 488.18 285.506 488.485 285.026 488.715C284.546 488.945 283.971 489.06 283.301 489.06ZM282.911 487.59C283.671 487.59 284.266 487.33 284.696 486.81C285.126 486.29 285.341 485.68 285.341 484.98C285.341 484.28 285.128 483.675 284.703 483.165C284.278 482.655 283.681 482.4 282.911 482.4C282.141 482.4 281.543 482.652 281.118 483.157C280.693 483.662 280.481 484.27 280.481 484.98C280.481 485.81 280.716 486.452 281.186 486.907C281.656 487.362 282.231 487.59 282.911 487.59ZM292.206 489.06C291.306 489.06 290.554 488.877 289.949 488.512C289.344 488.147 288.889 487.66 288.584 487.05C288.279 486.44 288.126 485.765 288.126 485.025C288.126 484.145 288.304 483.407 288.659 482.812C289.059 482.177 289.561 481.712 290.166 481.417C290.776 481.122 291.441 480.97 292.161 480.96C294.671 480.96 295.926 482.32 295.926 485.04L295.896 485.67H289.866C290.056 486.375 290.371 486.885 290.811 487.2C291.256 487.51 291.766 487.665 292.341 487.665C293.201 487.665 293.951 487.355 294.591 486.735L295.506 487.71C294.676 488.61 293.576 489.06 292.206 489.06ZM294.396 484.41C294.326 483.7 294.089 483.177 293.684 482.842C293.279 482.507 292.776 482.34 292.176 482.34C291.476 482.34 290.931 482.532 290.541 482.917C290.151 483.302 289.916 483.8 289.836 484.41H294.396ZM311.029 489H309.304V484.515C309.304 483.845 309.124 483.352 308.764 483.037C308.404 482.722 307.954 482.565 307.414 482.565C306.664 482.665 306.112 482.945 305.757 483.405C305.402 483.865 305.224 484.415 305.224 485.055V489H303.499V484.515C303.499 483.955 303.347 483.49 303.042 483.12C302.737 482.75 302.264 482.565 301.624 482.565C300.864 482.665 300.304 482.945 299.944 483.405C299.584 483.865 299.404 484.415 299.404 485.055V489H297.694V481.02H299.404V482.565C299.944 481.495 300.909 480.96 302.299 480.96C303.729 480.96 304.654 481.6 305.074 482.88C305.574 481.6 306.584 480.96 308.104 480.96C308.764 480.96 309.309 481.092 309.739 481.357C310.174 481.622 310.497 481.987 310.707 482.452C310.922 482.912 311.029 483.44 311.029 484.035V489ZM315.371 489H313.661V482.61H312.611V481.32H313.661V480.54C313.661 479.66 313.931 478.982 314.471 478.507C315.011 478.032 315.656 477.795 316.406 477.795C316.866 477.795 317.336 477.91 317.816 478.14L317.456 479.55C317.056 479.38 316.721 479.295 316.451 479.295C316.151 479.295 315.896 479.377 315.686 479.542C315.476 479.707 315.371 479.985 315.371 480.375V481.32H317.456V482.61H315.371V489ZM319.511 479.79C319.256 479.79 319.024 479.7 318.814 479.52C318.609 479.335 318.506 479.075 318.506 478.74C318.506 478.385 318.609 478.122 318.814 477.952C319.019 477.777 319.251 477.69 319.511 477.69C319.771 477.69 320.004 477.777 320.209 477.952C320.414 478.122 320.516 478.385 320.516 478.74C320.516 479.025 320.426 479.272 320.246 479.482C320.066 479.687 319.821 479.79 319.511 479.79ZM320.366 489H318.656V481.02H320.366V489ZM325.184 489.06C323.944 489.06 322.874 488.69 321.974 487.95L322.589 486.72C323.429 487.38 324.319 487.71 325.259 487.71C326.129 487.71 326.564 487.425 326.564 486.855C326.564 486.57 326.434 486.335 326.174 486.15C325.914 485.965 325.491 485.8 324.906 485.655C324.321 485.515 323.761 485.28 323.226 484.95C322.691 484.62 322.409 484.055 322.379 483.255C322.379 482.715 322.514 482.275 322.784 481.935C323.344 481.275 324.189 480.945 325.319 480.945C326.319 480.945 327.249 481.215 328.109 481.755L327.479 483.03C326.649 482.56 325.884 482.325 325.184 482.325C324.404 482.325 324.014 482.59 324.014 483.12C324.014 483.38 324.139 483.595 324.389 483.765C324.639 483.93 325.044 484.075 325.604 484.2C326.264 484.37 326.861 484.622 327.396 484.957C327.931 485.292 328.214 485.87 328.244 486.69C328.244 487.23 328.104 487.675 327.824 488.025C327.549 488.375 327.179 488.635 326.714 488.805C326.254 488.975 325.744 489.06 325.184 489.06ZM330.34 489.135C330.075 489.135 329.85 489.045 329.665 488.865C329.485 488.68 329.395 488.435 329.395 488.13C329.395 487.91 329.44 487.727 329.53 487.582C329.625 487.437 329.742 487.33 329.882 487.26C330.027 487.19 330.18 487.155 330.34 487.155C330.5 487.155 330.65 487.19 330.79 487.26C330.935 487.33 331.052 487.437 331.142 487.582C331.237 487.727 331.285 487.91 331.285 488.13C331.285 488.435 331.192 488.68 331.007 488.865C330.827 489.045 330.605 489.135 330.34 489.135ZM346.581 489H344.856V484.515C344.856 483.845 344.676 483.352 344.316 483.037C343.956 482.722 343.506 482.565 342.966 482.565C342.216 482.665 341.664 482.945 341.309 483.405C340.954 483.865 340.776 484.415 340.776 485.055V489H339.051V484.515C339.051 483.955 338.899 483.49 338.594 483.12C338.289 482.75 337.816 482.565 337.176 482.565C336.416 482.665 335.856 482.945 335.496 483.405C335.136 483.865 334.956 484.415 334.956 485.055V489H333.246V481.02H334.956V482.565C335.496 481.495 336.461 480.96 337.851 480.96C339.281 480.96 340.206 481.6 340.626 482.88C341.126 481.6 342.136 480.96 343.656 480.96C344.316 480.96 344.861 481.092 345.291 481.357C345.726 481.622 346.049 481.987 346.259 482.452C346.474 482.912 346.581 483.44 346.581 484.035V489ZM356.616 489H354.891V484.515C354.891 483.965 354.736 483.505 354.426 483.135C354.116 482.765 353.631 482.58 352.971 482.58C352.191 482.66 351.616 482.93 351.246 483.39C350.876 483.85 350.691 484.41 350.691 485.07V489H348.966V477.87H350.691V482.58C351.241 481.5 352.226 480.96 353.646 480.96C354.656 480.96 355.403 481.252 355.888 481.837C356.373 482.422 356.616 483.155 356.616 484.035V489ZM361.175 489.06C359.935 489.06 358.865 488.69 357.965 487.95L358.58 486.72C359.42 487.38 360.31 487.71 361.25 487.71C362.12 487.71 362.555 487.425 362.555 486.855C362.555 486.57 362.425 486.335 362.165 486.15C361.905 485.965 361.482 485.8 360.897 485.655C360.312 485.515 359.752 485.28 359.217 484.95C358.682 484.62 358.4 484.055 358.37 483.255C358.37 482.715 358.505 482.275 358.775 481.935C359.335 481.275 360.18 480.945 361.31 480.945C362.31 480.945 363.24 481.215 364.1 481.755L363.47 483.03C362.64 482.56 361.875 482.325 361.175 482.325C360.395 482.325 360.005 482.59 360.005 483.12C360.005 483.38 360.13 483.595 360.38 483.765C360.63 483.93 361.035 484.075 361.595 484.2C362.255 484.37 362.852 484.622 363.387 484.957C363.922 485.292 364.205 485.87 364.235 486.69C364.235 487.23 364.095 487.675 363.815 488.025C363.54 488.375 363.17 488.635 362.705 488.805C362.245 488.975 361.735 489.06 361.175 489.06ZM366.331 489.135C366.066 489.135 365.841 489.045 365.656 488.865C365.476 488.68 365.386 488.435 365.386 488.13C365.386 487.91 365.431 487.727 365.521 487.582C365.616 487.437 365.733 487.33 365.873 487.26C366.018 487.19 366.171 487.155 366.331 487.155C366.491 487.155 366.641 487.19 366.781 487.26C366.926 487.33 367.043 487.437 367.133 487.582C367.228 487.727 367.276 487.91 367.276 488.13C367.276 488.435 367.183 488.68 366.998 488.865C366.818 489.045 366.596 489.135 366.331 489.135ZM371.937 489.06C371.257 489.06 370.697 488.927 370.257 488.662C369.822 488.397 369.5 488.032 369.29 487.567C369.085 487.102 368.982 486.575 368.982 485.985V481.02H370.707V485.505C370.707 486.045 370.857 486.502 371.157 486.877C371.457 487.252 371.927 487.44 372.567 487.44C373.317 487.36 373.87 487.087 374.225 486.622C374.58 486.157 374.757 485.6 374.757 484.95V481.02H376.482V489H374.757V487.44C374.207 488.52 373.267 489.06 371.937 489.06ZM386.672 489H384.947V484.515C384.947 483.965 384.792 483.505 384.482 483.135C384.172 482.765 383.687 482.58 383.027 482.58C382.297 482.64 381.747 482.867 381.377 483.262C381.007 483.657 380.802 484.155 380.762 484.755V489H379.037V481.02H380.762V482.55C381.312 481.49 382.292 480.96 383.702 480.96C384.712 480.96 385.46 481.252 385.945 481.837C386.43 482.422 386.672 483.155 386.672 484.035V489ZM402.318 489H400.593V484.515C400.593 483.845 400.413 483.352 400.053 483.037C399.693 482.722 399.243 482.565 398.703 482.565C397.953 482.665 397.401 482.945 397.046 483.405C396.691 483.865 396.513 484.415 396.513 485.055V489H394.788V484.515C394.788 483.955 394.636 483.49 394.331 483.12C394.026 482.75 393.553 482.565 392.913 482.565C392.153 482.665 391.593 482.945 391.233 483.405C390.873 483.865 390.693 484.415 390.693 485.055V489H388.983V481.02H390.693V482.565C391.233 481.495 392.198 480.96 393.588 480.96C395.018 480.96 395.943 481.6 396.363 482.88C396.863 481.6 397.873 480.96 399.393 480.96C400.053 480.96 400.598 481.092 401.028 481.357C401.463 481.622 401.786 481.987 401.996 482.452C402.211 482.912 402.318 483.44 402.318 484.035V489ZM404.988 489.135C404.723 489.135 404.498 489.045 404.313 488.865C404.133 488.68 404.043 488.435 404.043 488.13C404.043 487.91 404.088 487.727 404.178 487.582C404.273 487.437 404.391 487.33 404.531 487.26C404.676 487.19 404.828 487.155 404.988 487.155C405.148 487.155 405.298 487.19 405.438 487.26C405.583 487.33 405.701 487.437 405.791 487.582C405.886 487.727 405.933 487.91 405.933 488.13C405.933 488.435 405.841 488.68 405.656 488.865C405.476 489.045 405.253 489.135 404.988 489.135ZM410.04 489.075C409.14 489.075 408.447 488.827 407.962 488.332C407.477 487.837 407.235 487.26 407.235 486.6C407.235 485.93 407.475 485.375 407.955 484.935C408.435 484.495 409.2 484.25 410.25 484.2H412.665C412.665 483.85 412.63 483.575 412.56 483.375C412.36 482.695 411.76 482.355 410.76 482.355C410 482.355 409.215 482.625 408.405 483.165L407.7 481.965C408.71 481.295 409.855 480.96 411.135 480.96C412.265 480.96 413.085 481.222 413.595 481.747C414.105 482.272 414.36 482.945 414.36 483.765L414.375 489H412.68V488.025C412.08 488.725 411.2 489.075 410.04 489.075ZM410.4 487.71C411.09 487.71 411.625 487.565 412.005 487.275C412.385 486.985 412.605 486.625 412.665 486.195V485.46H410.505C409.405 485.46 408.855 485.805 408.855 486.495C408.855 486.915 409.002 487.222 409.297 487.417C409.592 487.612 409.96 487.71 410.4 487.71ZM419.968 489.06C418.818 489.06 417.861 488.7 417.096 487.98C416.331 487.26 415.948 486.275 415.948 485.025C415.948 484.155 416.131 483.417 416.496 482.812C416.911 482.157 417.423 481.685 418.033 481.395C418.648 481.105 419.293 480.96 419.968 480.96C421.398 480.96 422.498 481.395 423.268 482.265L422.323 483.375C421.773 482.795 421.013 482.495 420.043 482.475C419.673 482.475 419.306 482.56 418.941 482.73C418.581 482.9 418.276 483.18 418.026 483.57C417.791 483.945 417.673 484.43 417.673 485.025C417.673 485.6 417.786 486.077 418.011 486.457C418.236 486.832 418.528 487.112 418.888 487.297C419.248 487.482 419.633 487.575 420.043 487.575C421.063 487.575 421.848 487.255 422.398 486.615L423.358 487.575C422.628 488.565 421.498 489.06 419.968 489.06ZM425.525 489.135C425.26 489.135 425.035 489.045 424.85 488.865C424.67 488.68 424.58 488.435 424.58 488.13C424.58 487.91 424.625 487.727 424.715 487.582C424.81 487.437 424.928 487.33 425.068 487.26C425.213 487.19 425.365 487.155 425.525 487.155C425.685 487.155 425.835 487.19 425.975 487.26C426.12 487.33 426.238 487.437 426.328 487.582C426.423 487.727 426.47 487.91 426.47 488.13C426.47 488.435 426.378 488.68 426.193 488.865C426.013 489.045 425.79 489.135 425.525 489.135ZM429.287 479.79C429.032 479.79 428.799 479.7 428.589 479.52C428.384 479.335 428.282 479.075 428.282 478.74C428.282 478.385 428.384 478.122 428.589 477.952C428.794 477.777 429.027 477.69 429.287 477.69C429.547 477.69 429.779 477.777 429.984 477.952C430.189 478.122 430.292 478.385 430.292 478.74C430.292 479.025 430.202 479.272 430.022 479.482C429.842 479.687 429.597 479.79 429.287 479.79ZM430.142 489H428.432V481.02H430.142V489ZM435.769 489.075C434.929 489.075 434.227 488.893 433.662 488.527C433.052 488.107 432.612 487.585 432.342 486.96C432.077 486.335 431.944 485.675 431.944 484.98C431.944 484.12 432.112 483.39 432.447 482.79C432.787 482.19 433.242 481.732 433.812 481.417C434.387 481.102 435.029 480.945 435.739 480.945C437.029 480.945 437.974 481.43 438.574 482.4V477.87H440.299V489H438.574V487.635C437.984 488.595 437.049 489.075 435.769 489.075ZM436.129 487.635C436.899 487.635 437.499 487.38 437.929 486.87C438.359 486.36 438.574 485.75 438.574 485.04C438.574 484.33 438.359 483.715 437.929 483.195C437.499 482.675 436.899 482.415 436.129 482.415C435.349 482.415 434.752 482.662 434.337 483.157C433.922 483.652 433.699 484.28 433.669 485.04C433.689 485.8 433.899 486.422 434.299 486.907C434.699 487.392 435.309 487.635 436.129 487.635ZM442.799 490.755H441.329L446.084 476.76H447.554L442.799 490.755ZM455.407 487.515V489H447.427V487.695L451.597 483.54C452.027 483.13 452.37 482.725 452.625 482.325C452.88 481.925 453.007 481.58 453.007 481.29C453.007 480.86 452.832 480.527 452.482 480.292C452.132 480.057 451.652 479.94 451.042 479.94C450.552 479.94 450.032 480.055 449.482 480.285C448.932 480.515 448.422 480.835 447.952 481.245L447.247 479.895C447.847 479.425 448.495 479.057 449.19 478.792C449.885 478.527 450.582 478.395 451.282 478.395C451.982 478.395 452.602 478.502 453.142 478.717C453.682 478.932 454.102 479.24 454.402 479.64C454.702 480.04 454.852 480.505 454.852 481.035C454.852 482.005 454.172 483.16 452.812 484.5L449.677 487.515H455.407ZM460.466 478.425C461.766 478.425 462.766 478.885 463.466 479.805C464.166 480.725 464.516 482.04 464.516 483.75C464.516 485.46 464.166 486.775 463.466 487.695C462.766 488.615 461.766 489.075 460.466 489.075C459.156 489.075 458.151 488.615 457.451 487.695C456.751 486.775 456.401 485.46 456.401 483.75C456.401 482.04 456.751 480.725 457.451 479.805C458.151 478.885 459.156 478.425 460.466 478.425ZM460.466 479.835C459.716 479.835 459.159 480.155 458.794 480.795C458.429 481.435 458.246 482.42 458.246 483.75C458.246 485.07 458.431 486.052 458.801 486.697C459.171 487.342 459.726 487.665 460.466 487.665C461.206 487.665 461.759 487.342 462.124 486.697C462.489 486.052 462.671 485.07 462.671 483.75C462.671 482.42 462.489 481.435 462.124 480.795C461.759 480.155 461.206 479.835 460.466 479.835ZM473.835 487.515V489H465.855V487.695L470.025 483.54C470.455 483.13 470.798 482.725 471.053 482.325C471.308 481.925 471.435 481.58 471.435 481.29C471.435 480.86 471.26 480.527 470.91 480.292C470.56 480.057 470.08 479.94 469.47 479.94C468.98 479.94 468.46 480.055 467.91 480.285C467.36 480.515 466.85 480.835 466.38 481.245L465.675 479.895C466.275 479.425 466.923 479.057 467.618 478.792C468.313 478.527 469.01 478.395 469.71 478.395C470.41 478.395 471.03 478.502 471.57 478.717C472.11 478.932 472.53 479.24 472.83 479.64C473.13 480.04 473.28 480.505 473.28 481.035C473.28 482.005 472.6 483.16 471.24 484.5L468.105 487.515H473.835ZM483.049 487.515V489H475.069V487.695L479.239 483.54C479.669 483.13 480.011 482.725 480.266 482.325C480.521 481.925 480.649 481.58 480.649 481.29C480.649 480.86 480.474 480.527 480.124 480.292C479.774 480.057 479.294 479.94 478.684 479.94C478.194 479.94 477.674 480.055 477.124 480.285C476.574 480.515 476.064 480.835 475.594 481.245L474.889 479.895C475.489 479.425 476.136 479.057 476.831 478.792C477.526 478.527 478.224 478.395 478.924 478.395C479.624 478.395 480.244 478.502 480.784 478.717C481.324 478.932 481.744 479.24 482.044 479.64C482.344 480.04 482.494 480.505 482.494 481.035C482.494 482.005 481.814 483.16 480.454 484.5L477.319 487.515H483.049ZM484.62 490.755H483.15L487.905 476.76H489.375L484.62 490.755ZM493.074 478.425C494.374 478.425 495.374 478.885 496.074 479.805C496.774 480.725 497.124 482.04 497.124 483.75C497.124 485.46 496.774 486.775 496.074 487.695C495.374 488.615 494.374 489.075 493.074 489.075C491.764 489.075 490.759 488.615 490.059 487.695C489.359 486.775 489.009 485.46 489.009 483.75C489.009 482.04 489.359 480.725 490.059 479.805C490.759 478.885 491.764 478.425 493.074 478.425ZM493.074 479.835C492.324 479.835 491.766 480.155 491.401 480.795C491.036 481.435 490.854 482.42 490.854 483.75C490.854 485.07 491.039 486.052 491.409 486.697C491.779 487.342 492.334 487.665 493.074 487.665C493.814 487.665 494.366 487.342 494.731 486.697C495.096 486.052 495.279 485.07 495.279 483.75C495.279 482.42 495.096 481.435 494.731 480.795C494.366 480.155 493.814 479.835 493.074 479.835ZM502.918 482.91C503.918 482.99 504.715 483.277 505.31 483.772C505.905 484.267 506.203 484.925 506.203 485.745C506.203 486.395 506.035 486.972 505.7 487.477C505.365 487.982 504.885 488.375 504.26 488.655C503.635 488.935 502.908 489.075 502.078 489.075C501.388 489.075 500.7 488.973 500.015 488.767C499.33 488.562 498.748 488.285 498.268 487.935L499.003 486.525C499.413 486.865 499.875 487.127 500.39 487.312C500.905 487.497 501.428 487.59 501.958 487.59C502.748 487.59 503.365 487.425 503.81 487.095C504.255 486.765 504.478 486.325 504.478 485.775C504.478 485.215 504.255 484.787 503.81 484.492C503.365 484.197 502.738 484.05 501.928 484.05H500.398V482.955L503.368 480.06H498.793L498.778 478.5H505.678V479.61L502.333 482.865L502.918 482.91ZM508.014 490.755H506.544L511.299 476.76H512.769L508.014 490.755ZM520.622 487.515V489H512.642V487.695L516.812 483.54C517.242 483.13 517.585 482.725 517.84 482.325C518.095 481.925 518.222 481.58 518.222 481.29C518.222 480.86 518.047 480.527 517.697 480.292C517.347 480.057 516.867 479.94 516.257 479.94C515.767 479.94 515.247 480.055 514.697 480.285C514.147 480.515 513.637 480.835 513.167 481.245L512.462 479.895C513.062 479.425 513.71 479.057 514.405 478.792C515.1 478.527 515.797 478.395 516.497 478.395C517.197 478.395 517.817 478.502 518.357 478.717C518.897 478.932 519.317 479.24 519.617 479.64C519.917 480.04 520.067 480.505 520.067 481.035C520.067 482.005 519.387 483.16 518.027 484.5L514.892 487.515H520.622ZM526.311 482.91C527.311 482.99 528.109 483.277 528.704 483.772C529.299 484.267 529.596 484.925 529.596 485.745C529.596 486.395 529.429 486.972 529.094 487.477C528.759 487.982 528.279 488.375 527.654 488.655C527.029 488.935 526.301 489.075 525.471 489.075C524.781 489.075 524.094 488.973 523.409 488.767C522.724 488.562 522.141 488.285 521.661 487.935L522.396 486.525C522.806 486.865 523.269 487.127 523.784 487.312C524.299 487.497 524.821 487.59 525.351 487.59C526.141 487.59 526.759 487.425 527.204 487.095C527.649 486.765 527.871 486.325 527.871 485.775C527.871 485.215 527.649 484.787 527.204 484.492C526.759 484.197 526.131 484.05 525.321 484.05H523.791V482.955L526.761 480.06H522.186L522.171 478.5H529.071V479.61L525.726 482.865L526.311 482.91ZM531.407 490.755H529.937L534.692 476.76H536.162L531.407 490.755ZM538.533 489H536.823V482.61H535.773V481.32H536.823V480.54C536.823 479.66 537.093 478.982 537.633 478.507C538.173 478.032 538.818 477.795 539.568 477.795C540.028 477.795 540.498 477.91 540.978 478.14L540.618 479.55C540.218 479.38 539.883 479.295 539.613 479.295C539.313 479.295 539.058 479.377 538.848 479.542C538.638 479.707 538.533 479.985 538.533 480.375V481.32H540.618V482.61H538.533V489ZM545.082 489.06C544.182 489.06 543.43 488.877 542.825 488.512C542.22 488.147 541.765 487.66 541.46 487.05C541.155 486.44 541.002 485.765 541.002 485.025C541.002 484.145 541.18 483.407 541.535 482.812C541.935 482.177 542.437 481.712 543.042 481.417C543.652 481.122 544.317 480.97 545.037 480.96C547.547 480.96 548.802 482.32 548.802 485.04L548.772 485.67H542.742C542.932 486.375 543.247 486.885 543.687 487.2C544.132 487.51 544.642 487.665 545.217 487.665C546.077 487.665 546.827 487.355 547.467 486.735L548.382 487.71C547.552 488.61 546.452 489.06 545.082 489.06ZM547.272 484.41C547.202 483.7 546.965 483.177 546.56 482.842C546.155 482.507 545.652 482.34 545.052 482.34C544.352 482.34 543.807 482.532 543.417 482.917C543.027 483.302 542.792 483.8 542.712 484.41H547.272ZM558.205 489H556.48V484.515C556.48 483.965 556.325 483.505 556.015 483.135C555.705 482.765 555.22 482.58 554.56 482.58C553.83 482.64 553.28 482.867 552.91 483.262C552.54 483.657 552.335 484.155 552.295 484.755V489H550.57V481.02H552.295V482.55C552.845 481.49 553.825 480.96 555.235 480.96C556.245 480.96 556.993 481.252 557.478 481.837C557.963 482.422 558.205 483.155 558.205 484.035V489ZM563.951 489.06C562.741 489.06 561.744 488.705 560.959 487.995C560.174 487.285 559.781 486.285 559.781 484.995C559.781 483.745 560.169 482.76 560.944 482.04C561.719 481.32 562.721 480.96 563.951 480.96C565.171 480.96 566.169 481.322 566.944 482.047C567.719 482.772 568.106 483.755 568.106 484.995C568.106 485.59 568.019 486.12 567.844 486.585C567.674 487.045 567.436 487.442 567.131 487.777C566.831 488.107 566.479 488.375 566.074 488.58C565.449 488.9 564.741 489.06 563.951 489.06ZM563.951 487.62C564.631 487.62 565.206 487.39 565.676 486.93C566.146 486.47 566.381 485.835 566.381 485.025C566.381 484.215 566.146 483.58 565.676 483.12C565.206 482.66 564.631 482.43 563.951 482.43C563.291 482.43 562.719 482.65 562.234 483.09C561.749 483.53 561.506 484.175 561.506 485.025C561.506 485.875 561.744 486.52 562.219 486.96C562.694 487.4 563.271 487.62 563.951 487.62ZM583.241 489H581.516V484.515C581.516 483.845 581.336 483.352 580.976 483.037C580.616 482.722 580.166 482.565 579.626 482.565C578.876 482.665 578.324 482.945 577.969 483.405C577.614 483.865 577.436 484.415 577.436 485.055V489H575.711V484.515C575.711 483.955 575.559 483.49 575.254 483.12C574.949 482.75 574.476 482.565 573.836 482.565C573.076 482.665 572.516 482.945 572.156 483.405C571.796 483.865 571.616 484.415 571.616 485.055V489H569.906V481.02H571.616V482.565C572.156 481.495 573.121 480.96 574.511 480.96C575.941 480.96 576.866 481.6 577.286 482.88C577.786 481.6 578.796 480.96 580.316 480.96C580.976 480.96 581.521 481.092 581.951 481.357C582.386 481.622 582.709 481.987 582.919 482.452C583.134 482.912 583.241 483.44 583.241 484.035V489ZM588.896 489.06C587.996 489.06 587.243 488.877 586.638 488.512C586.033 488.147 585.578 487.66 585.273 487.05C584.968 486.44 584.816 485.765 584.816 485.025C584.816 484.145 584.993 483.407 585.348 482.812C585.748 482.177 586.251 481.712 586.856 481.417C587.466 481.122 588.131 480.97 588.851 480.96C591.361 480.96 592.616 482.32 592.616 485.04L592.586 485.67H586.556C586.746 486.375 587.061 486.885 587.501 487.2C587.946 487.51 588.456 487.665 589.031 487.665C589.891 487.665 590.641 487.355 591.281 486.735L592.196 487.71C591.366 488.61 590.266 489.06 588.896 489.06ZM591.086 484.41C591.016 483.7 590.778 483.177 590.373 482.842C589.968 482.507 589.466 482.34 588.866 482.34C588.166 482.34 587.621 482.532 587.231 482.917C586.841 483.302 586.606 483.8 586.526 484.41H591.086ZM602.019 489H600.294V484.515C600.294 483.965 600.139 483.505 599.829 483.135C599.519 482.765 599.034 482.58 598.374 482.58C597.644 482.64 597.094 482.867 596.724 483.262C596.354 483.657 596.149 484.155 596.109 484.755V489H594.384V481.02H596.109V482.55C596.659 481.49 597.639 480.96 599.049 480.96C600.059 480.96 600.806 481.252 601.291 481.837C601.776 482.422 602.019 483.155 602.019 484.035V489ZM606.475 489.075C605.575 489.075 604.883 488.827 604.398 488.332C603.913 487.837 603.67 487.26 603.67 486.6C603.67 485.93 603.91 485.375 604.39 484.935C604.87 484.495 605.635 484.25 606.685 484.2H609.1C609.1 483.85 609.065 483.575 608.995 483.375C608.795 482.695 608.195 482.355 607.195 482.355C606.435 482.355 605.65 482.625 604.84 483.165L604.135 481.965C605.145 481.295 606.29 480.96 607.57 480.96C608.7 480.96 609.52 481.222 610.03 481.747C610.54 482.272 610.795 482.945 610.795 483.765L610.81 489H609.115V488.025C608.515 488.725 607.635 489.075 606.475 489.075ZM606.835 487.71C607.525 487.71 608.06 487.565 608.44 487.275C608.82 486.985 609.04 486.625 609.1 486.195V485.46H606.94C605.84 485.46 605.29 485.805 605.29 486.495C605.29 486.915 605.438 487.222 605.733 487.417C606.028 487.612 606.395 487.71 606.835 487.71ZM616.449 485.025H612.759V483.84H616.449V485.025ZM620.442 491.91H618.717V481.02H620.442V482.4C621.052 481.44 621.982 480.96 623.232 480.96C624.352 480.96 625.267 481.325 625.977 482.055C626.687 482.785 627.042 483.78 627.042 485.04C627.042 485.54 626.969 486.03 626.824 486.51C626.684 486.985 626.462 487.415 626.157 487.8C625.857 488.18 625.467 488.485 624.987 488.715C624.507 488.945 623.932 489.06 623.262 489.06C621.992 489.06 621.052 488.58 620.442 487.62V491.91ZM622.872 487.59C623.632 487.59 624.227 487.33 624.657 486.81C625.087 486.29 625.302 485.68 625.302 484.98C625.302 484.28 625.089 483.675 624.664 483.165C624.239 482.655 623.642 482.4 622.872 482.4C622.102 482.4 621.504 482.652 621.079 483.157C620.654 483.662 620.442 484.27 620.442 484.98C620.442 485.81 620.677 486.452 621.147 486.907C621.617 487.362 622.192 487.59 622.872 487.59ZM632.167 489.06C631.267 489.06 630.515 488.877 629.91 488.512C629.305 488.147 628.85 487.66 628.545 487.05C628.24 486.44 628.087 485.765 628.087 485.025C628.087 484.145 628.265 483.407 628.62 482.812C629.02 482.177 629.522 481.712 630.127 481.417C630.737 481.122 631.402 480.97 632.122 480.96C634.632 480.96 635.887 482.32 635.887 485.04L635.857 485.67H629.827C630.017 486.375 630.332 486.885 630.772 487.2C631.217 487.51 631.727 487.665 632.302 487.665C633.162 487.665 633.912 487.355 634.552 486.735L635.467 487.71C634.637 488.61 633.537 489.06 632.167 489.06ZM634.357 484.41C634.287 483.7 634.05 483.177 633.645 482.842C633.24 482.507 632.737 482.34 632.137 482.34C631.437 482.34 630.892 482.532 630.502 482.917C630.112 483.302 629.877 483.8 629.797 484.41H634.357ZM645.29 489H643.565V484.515C643.565 483.965 643.41 483.505 643.1 483.135C642.79 482.765 642.305 482.58 641.645 482.58C640.915 482.64 640.365 482.867 639.995 483.262C639.625 483.657 639.42 484.155 639.38 484.755V489H637.655V481.02H639.38V482.55C639.93 481.49 640.91 480.96 642.32 480.96C643.33 480.96 644.078 481.252 644.563 481.837C645.048 482.422 645.29 483.155 645.29 484.035V489ZM650.691 489.075C649.851 489.075 649.149 488.893 648.584 488.527C647.974 488.107 647.534 487.585 647.264 486.96C646.999 486.335 646.866 485.675 646.866 484.98C646.866 484.12 647.034 483.39 647.369 482.79C647.709 482.19 648.164 481.732 648.734 481.417C649.309 481.102 649.951 480.945 650.661 480.945C651.951 480.945 652.896 481.43 653.496 482.4V477.87H655.221V489H653.496V487.635C652.906 488.595 651.971 489.075 650.691 489.075ZM651.051 487.635C651.821 487.635 652.421 487.38 652.851 486.87C653.281 486.36 653.496 485.75 653.496 485.04C653.496 484.33 653.281 483.715 652.851 483.195C652.421 482.675 651.821 482.415 651.051 482.415C650.271 482.415 649.674 482.662 649.259 483.157C648.844 483.652 648.621 484.28 648.591 485.04C648.611 485.8 648.821 486.422 649.221 486.907C649.621 487.392 650.231 487.635 651.051 487.635ZM658.696 479.79C658.441 479.79 658.208 479.7 657.998 479.52C657.793 479.335 657.691 479.075 657.691 478.74C657.691 478.385 657.793 478.122 657.998 477.952C658.203 477.777 658.436 477.69 658.696 477.69C658.956 477.69 659.188 477.777 659.393 477.952C659.598 478.122 659.701 478.385 659.701 478.74C659.701 479.025 659.611 479.272 659.431 479.482C659.251 479.687 659.006 479.79 658.696 479.79ZM659.551 489H657.841V481.02H659.551V489ZM665.179 489.075C664.339 489.075 663.636 488.893 663.071 488.527C662.461 488.107 662.021 487.585 661.751 486.96C661.486 486.335 661.354 485.675 661.354 484.98C661.354 484.12 661.521 483.39 661.856 482.79C662.196 482.19 662.651 481.732 663.221 481.417C663.796 481.102 664.439 480.945 665.149 480.945C666.439 480.945 667.384 481.43 667.984 482.4V477.87H669.709V489H667.984V487.635C667.394 488.595 666.459 489.075 665.179 489.075ZM665.539 487.635C666.309 487.635 666.909 487.38 667.339 486.87C667.769 486.36 667.984 485.75 667.984 485.04C667.984 484.33 667.769 483.715 667.339 483.195C666.909 482.675 666.309 482.415 665.539 482.415C664.759 482.415 664.161 482.662 663.746 483.157C663.331 483.652 663.109 484.28 663.079 485.04C663.099 485.8 663.309 486.422 663.709 486.907C664.109 487.392 664.719 487.635 665.539 487.635ZM673.183 479.79C672.928 479.79 672.696 479.7 672.486 479.52C672.281 479.335 672.178 479.075 672.178 478.74C672.178 478.385 672.281 478.122 672.486 477.952C672.691 477.777 672.923 477.69 673.183 477.69C673.443 477.69 673.676 477.777 673.881 477.952C674.086 478.122 674.188 478.385 674.188 478.74C674.188 479.025 674.098 479.272 673.918 479.482C673.738 479.687 673.493 479.79 673.183 479.79ZM674.038 489H672.328V481.02H674.038V489ZM684.121 489H682.081L679.741 485.34L678.391 486.765V489H676.666V477.87H678.391V484.59L681.916 481.02H683.896L680.941 484.11L684.121 489ZM687.584 489.075C686.684 489.075 685.991 488.827 685.506 488.332C685.021 487.837 684.779 487.26 684.779 486.6C684.779 485.93 685.019 485.375 685.499 484.935C685.979 484.495 686.744 484.25 687.794 484.2H690.209C690.209 483.85 690.174 483.575 690.104 483.375C689.904 482.695 689.304 482.355 688.304 482.355C687.544 482.355 686.759 482.625 685.949 483.165L685.244 481.965C686.254 481.295 687.399 480.96 688.679 480.96C689.809 480.96 690.629 481.222 691.139 481.747C691.649 482.272 691.904 482.945 691.904 483.765L691.919 489H690.224V488.025C689.624 488.725 688.744 489.075 687.584 489.075ZM687.944 487.71C688.634 487.71 689.169 487.565 689.549 487.275C689.929 486.985 690.149 486.625 690.209 486.195V485.46H688.049C686.949 485.46 686.399 485.805 686.399 486.495C686.399 486.915 686.546 487.222 686.841 487.417C687.136 487.612 687.504 487.71 687.944 487.71ZM701.863 489H700.138V484.515C700.138 483.965 699.983 483.505 699.673 483.135C699.363 482.765 698.878 482.58 698.218 482.58C697.488 482.64 696.938 482.867 696.568 483.262C696.198 483.657 695.993 484.155 695.953 484.755V489H694.228V481.02H695.953V482.55C696.503 481.49 697.483 480.96 698.893 480.96C699.903 480.96 700.65 481.252 701.135 481.837C701.62 482.422 701.863 483.155 701.863 484.035V489ZM707.504 485.025H703.814V483.84H707.504V485.025ZM712.845 489.075C712.005 489.075 711.302 488.893 710.737 488.527C710.127 488.107 709.687 487.585 709.417 486.96C709.152 486.335 709.02 485.675 709.02 484.98C709.02 484.12 709.187 483.39 709.522 482.79C709.862 482.19 710.317 481.732 710.887 481.417C711.462 481.102 712.105 480.945 712.815 480.945C714.105 480.945 715.05 481.43 715.65 482.4V477.87H717.375V489H715.65V487.635C715.06 488.595 714.125 489.075 712.845 489.075ZM713.205 487.635C713.975 487.635 714.575 487.38 715.005 486.87C715.435 486.36 715.65 485.75 715.65 485.04C715.65 484.33 715.435 483.715 715.005 483.195C714.575 482.675 713.975 482.415 713.205 482.415C712.425 482.415 711.827 482.662 711.412 483.157C710.997 483.652 710.775 484.28 710.745 485.04C710.765 485.8 710.975 486.422 711.375 486.907C711.775 487.392 712.385 487.635 713.205 487.635ZM720.849 479.79C720.594 479.79 720.362 479.7 720.152 479.52C719.947 479.335 719.844 479.075 719.844 478.74C719.844 478.385 719.947 478.122 720.152 477.952C720.357 477.777 720.589 477.69 720.849 477.69C721.109 477.69 721.342 477.777 721.547 477.952C721.752 478.122 721.854 478.385 721.854 478.74C721.854 479.025 721.764 479.272 721.584 479.482C721.404 479.687 721.159 479.79 720.849 479.79ZM721.704 489H719.994V481.02H721.704V489ZM727.587 485.025H723.897V483.84H727.587V485.025ZM730.634 479.79C730.379 479.79 730.147 479.7 729.937 479.52C729.732 479.335 729.629 479.075 729.629 478.74C729.629 478.385 729.732 478.122 729.937 477.952C730.142 477.777 730.374 477.69 730.634 477.69C730.894 477.69 731.127 477.777 731.332 477.952C731.537 478.122 731.639 478.385 731.639 478.74C731.639 479.025 731.549 479.272 731.369 479.482C731.189 479.687 730.944 479.79 730.634 479.79ZM731.489 489H729.779V481.02H731.489V489ZM741.677 489H739.952V484.515C739.952 483.965 739.797 483.505 739.487 483.135C739.177 482.765 738.692 482.58 738.032 482.58C737.302 482.64 736.752 482.867 736.382 483.262C736.012 483.657 735.807 484.155 735.767 484.755V489H734.042V481.02H735.767V482.55C736.317 481.49 737.297 480.96 738.707 480.96C739.717 480.96 740.465 481.252 740.95 481.837C741.435 482.422 741.677 483.155 741.677 484.035V489ZM747.078 489.075C746.238 489.075 745.536 488.893 744.971 488.527C744.361 488.107 743.921 487.585 743.651 486.96C743.386 486.335 743.253 485.675 743.253 484.98C743.253 484.12 743.421 483.39 743.756 482.79C744.096 482.19 744.551 481.732 745.121 481.417C745.696 481.102 746.338 480.945 747.048 480.945C748.338 480.945 749.283 481.43 749.883 482.4V477.87H751.608V489H749.883V487.635C749.293 488.595 748.358 489.075 747.078 489.075ZM747.438 487.635C748.208 487.635 748.808 487.38 749.238 486.87C749.668 486.36 749.883 485.75 749.883 485.04C749.883 484.33 749.668 483.715 749.238 483.195C748.808 482.675 748.208 482.415 747.438 482.415C746.658 482.415 746.061 482.662 745.646 483.157C745.231 483.652 745.008 484.28 744.978 485.04C744.998 485.8 745.208 486.422 745.608 486.907C746.008 487.392 746.618 487.635 747.438 487.635ZM757.648 489.06C756.438 489.06 755.44 488.705 754.655 487.995C753.87 487.285 753.478 486.285 753.478 484.995C753.478 483.745 753.865 482.76 754.64 482.04C755.415 481.32 756.418 480.96 757.648 480.96C758.868 480.96 759.865 481.322 760.64 482.047C761.415 482.772 761.803 483.755 761.803 484.995C761.803 485.59 761.715 486.12 761.54 486.585C761.37 487.045 761.133 487.442 760.828 487.777C760.528 488.107 760.175 488.375 759.77 488.58C759.145 488.9 758.438 489.06 757.648 489.06ZM757.648 487.62C758.328 487.62 758.903 487.39 759.373 486.93C759.843 486.47 760.078 485.835 760.078 485.025C760.078 484.215 759.843 483.58 759.373 483.12C758.903 482.66 758.328 482.43 757.648 482.43C756.988 482.43 756.415 482.65 755.93 483.09C755.445 483.53 755.203 484.175 755.203 485.025C755.203 485.875 755.44 486.52 755.915 486.96C756.39 487.4 756.968 487.62 757.648 487.62ZM771.238 489H769.513V484.515C769.513 483.965 769.358 483.505 769.048 483.135C768.738 482.765 768.253 482.58 767.593 482.58C766.863 482.64 766.313 482.867 765.943 483.262C765.573 483.657 765.368 484.155 765.328 484.755V489H763.603V481.02H765.328V482.55C765.878 481.49 766.858 480.96 768.268 480.96C769.278 480.96 770.025 481.252 770.51 481.837C770.995 482.422 771.238 483.155 771.238 484.035V489ZM776.894 489.06C775.994 489.06 775.241 488.877 774.636 488.512C774.031 488.147 773.576 487.66 773.271 487.05C772.966 486.44 772.814 485.765 772.814 485.025C772.814 484.145 772.991 483.407 773.346 482.812C773.746 482.177 774.249 481.712 774.854 481.417C775.464 481.122 776.129 480.97 776.849 480.96C779.359 480.96 780.614 482.32 780.614 485.04L780.584 485.67H774.554C774.744 486.375 775.059 486.885 775.499 487.2C775.944 487.51 776.454 487.665 777.029 487.665C777.889 487.665 778.639 487.355 779.279 486.735L780.194 487.71C779.364 488.61 778.264 489.06 776.894 489.06ZM779.084 484.41C779.014 483.7 778.776 483.177 778.371 482.842C777.966 482.507 777.464 482.34 776.864 482.34C776.164 482.34 775.619 482.532 775.229 482.917C774.839 483.302 774.604 483.8 774.524 484.41H779.084ZM784.632 489.06C783.392 489.06 782.322 488.69 781.422 487.95L782.037 486.72C782.877 487.38 783.767 487.71 784.707 487.71C785.577 487.71 786.012 487.425 786.012 486.855C786.012 486.57 785.882 486.335 785.622 486.15C785.362 485.965 784.939 485.8 784.354 485.655C783.769 485.515 783.209 485.28 782.674 484.95C782.139 484.62 781.857 484.055 781.827 483.255C781.827 482.715 781.962 482.275 782.232 481.935C782.792 481.275 783.637 480.945 784.767 480.945C785.767 480.945 786.697 481.215 787.557 481.755L786.927 483.03C786.097 482.56 785.332 482.325 784.632 482.325C783.852 482.325 783.462 482.59 783.462 483.12C783.462 483.38 783.587 483.595 783.837 483.765C784.087 483.93 784.492 484.075 785.052 484.2C785.712 484.37 786.309 484.622 786.844 484.957C787.379 485.292 787.662 485.87 787.692 486.69C787.692 487.23 787.552 487.675 787.272 488.025C786.997 488.375 786.627 488.635 786.162 488.805C785.702 488.975 785.192 489.06 784.632 489.06ZM790.283 479.79C790.028 479.79 789.795 479.7 789.585 479.52C789.38 479.335 789.278 479.075 789.278 478.74C789.278 478.385 789.38 478.122 789.585 477.952C789.79 477.777 790.023 477.69 790.283 477.69C790.543 477.69 790.775 477.777 790.98 477.952C791.185 478.122 791.288 478.385 791.288 478.74C791.288 479.025 791.198 479.272 791.018 479.482C790.838 479.687 790.593 479.79 790.283 479.79ZM791.138 489H789.428V481.02H791.138V489ZM795.836 489.075C794.936 489.075 794.243 488.827 793.758 488.332C793.273 487.837 793.031 487.26 793.031 486.6C793.031 485.93 793.271 485.375 793.751 484.935C794.231 484.495 794.996 484.25 796.046 484.2H798.461C798.461 483.85 798.426 483.575 798.356 483.375C798.156 482.695 797.556 482.355 796.556 482.355C795.796 482.355 795.011 482.625 794.201 483.165L793.496 481.965C794.506 481.295 795.651 480.96 796.931 480.96C798.061 480.96 798.881 481.222 799.391 481.747C799.901 482.272 800.156 482.945 800.156 483.765L800.171 489H798.476V488.025C797.876 488.725 796.996 489.075 795.836 489.075ZM796.196 487.71C796.886 487.71 797.421 487.565 797.801 487.275C798.181 486.985 798.401 486.625 798.461 486.195V485.46H796.301C795.201 485.46 794.651 485.805 794.651 486.495C794.651 486.915 794.798 487.222 795.093 487.417C795.388 487.612 795.756 487.71 796.196 487.71ZM805.81 485.025H802.12V483.84H805.81V485.025ZM809.802 491.91H808.077V481.02H809.802V482.4C810.412 481.44 811.342 480.96 812.592 480.96C813.712 480.96 814.627 481.325 815.337 482.055C816.047 482.785 816.402 483.78 816.402 485.04C816.402 485.54 816.33 486.03 816.185 486.51C816.045 486.985 815.822 487.415 815.517 487.8C815.217 488.18 814.827 488.485 814.347 488.715C813.867 488.945 813.292 489.06 812.622 489.06C811.352 489.06 810.412 488.58 809.802 487.62V491.91ZM812.232 487.59C812.992 487.59 813.587 487.33 814.017 486.81C814.447 486.29 814.662 485.68 814.662 484.98C814.662 484.28 814.45 483.675 814.025 483.165C813.6 482.655 813.002 482.4 812.232 482.4C811.462 482.4 810.865 482.652 810.44 483.157C810.015 483.662 809.802 484.27 809.802 484.98C809.802 485.81 810.037 486.452 810.507 486.907C810.977 487.362 811.552 487.59 812.232 487.59ZM821.527 489.06C820.627 489.06 819.875 488.877 819.27 488.512C818.665 488.147 818.21 487.66 817.905 487.05C817.6 486.44 817.447 485.765 817.447 485.025C817.447 484.145 817.625 483.407 817.98 482.812C818.38 482.177 818.882 481.712 819.487 481.417C820.097 481.122 820.762 480.97 821.482 480.96C823.992 480.96 825.247 482.32 825.247 485.04L825.217 485.67H819.187C819.377 486.375 819.692 486.885 820.132 487.2C820.577 487.51 821.087 487.665 821.662 487.665C822.522 487.665 823.272 487.355 823.912 486.735L824.827 487.71C823.997 488.61 822.897 489.06 821.527 489.06ZM823.717 484.41C823.647 483.7 823.41 483.177 823.005 482.842C822.6 482.507 822.097 482.34 821.497 482.34C820.797 482.34 820.252 482.532 819.862 482.917C819.472 483.302 819.237 483.8 819.157 484.41H823.717ZM828.741 489H827.016V481.02H828.741V482.61C829.331 481.51 830.251 480.96 831.501 480.96V482.61C830.631 482.61 829.968 482.81 829.513 483.21C829.058 483.61 828.801 484.15 828.741 484.83V489ZM834.705 489.075C834.185 489.075 833.725 488.887 833.325 488.512C832.925 488.137 832.725 487.55 832.725 486.75V477.87H834.435V486.57C834.435 487.19 834.68 487.5 835.17 487.5C835.41 487.5 835.675 487.415 835.965 487.245L836.205 488.655C835.685 488.935 835.185 489.075 834.705 489.075ZM840.189 489.06C839.509 489.06 838.949 488.927 838.509 488.662C838.074 488.397 837.752 488.032 837.542 487.567C837.337 487.102 837.234 486.575 837.234 485.985V481.02H838.959V485.505C838.959 486.045 839.109 486.502 839.409 486.877C839.709 487.252 840.179 487.44 840.819 487.44C841.569 487.36 842.122 487.087 842.477 486.622C842.832 486.157 843.009 485.6 843.009 484.95V481.02H844.734V489H843.009V487.44C842.459 488.52 841.519 489.06 840.189 489.06ZM854.819 489H852.779L850.439 485.34L849.089 486.765V489H847.364V477.87H849.089V484.59L852.614 481.02H854.594L851.639 484.11L854.819 489ZM858.282 489.075C857.382 489.075 856.689 488.827 856.204 488.332C855.719 487.837 855.477 487.26 855.477 486.6C855.477 485.93 855.717 485.375 856.197 484.935C856.677 484.495 857.442 484.25 858.492 484.2H860.907C860.907 483.85 860.872 483.575 860.802 483.375C860.602 482.695 860.002 482.355 859.002 482.355C858.242 482.355 857.457 482.625 856.647 483.165L855.942 481.965C856.952 481.295 858.097 480.96 859.377 480.96C860.507 480.96 861.327 481.222 861.837 481.747C862.347 482.272 862.602 482.945 862.602 483.765L862.617 489H860.922V488.025C860.322 488.725 859.442 489.075 858.282 489.075ZM858.642 487.71C859.332 487.71 859.867 487.565 860.247 487.275C860.627 486.985 860.847 486.625 860.907 486.195V485.46H858.747C857.647 485.46 857.097 485.805 857.097 486.495C857.097 486.915 857.244 487.222 857.539 487.417C857.834 487.612 858.202 487.71 858.642 487.71ZM872.651 489H870.926V484.515C870.926 483.965 870.771 483.505 870.461 483.135C870.151 482.765 869.666 482.58 869.006 482.58C868.226 482.66 867.651 482.93 867.281 483.39C866.911 483.85 866.726 484.41 866.726 485.07V489H865.001V477.87H866.726V482.58C867.276 481.5 868.261 480.96 869.681 480.96C870.691 480.96 871.438 481.252 871.923 481.837C872.408 482.422 872.651 483.155 872.651 484.035V489ZM878.29 485.025H874.6V483.84H878.29V485.025ZM883.631 489.075C882.791 489.075 882.088 488.893 881.523 488.527C880.913 488.107 880.473 487.585 880.203 486.96C879.938 486.335 879.806 485.675 879.806 484.98C879.806 484.12 879.973 483.39 880.308 482.79C880.648 482.19 881.103 481.732 881.673 481.417C882.248 481.102 882.891 480.945 883.601 480.945C884.891 480.945 885.836 481.43 886.436 482.4V477.87H888.161V489H886.436V487.635C885.846 488.595 884.911 489.075 883.631 489.075ZM883.991 487.635C884.761 487.635 885.361 487.38 885.791 486.87C886.221 486.36 886.436 485.75 886.436 485.04C886.436 484.33 886.221 483.715 885.791 483.195C885.361 482.675 884.761 482.415 883.991 482.415C883.211 482.415 882.613 482.662 882.198 483.157C881.783 483.652 881.561 484.28 881.531 485.04C881.551 485.8 881.761 486.422 882.161 486.907C882.561 487.392 883.171 487.635 883.991 487.635ZM891.635 479.79C891.38 479.79 891.148 479.7 890.938 479.52C890.733 479.335 890.63 479.075 890.63 478.74C890.63 478.385 890.733 478.122 890.938 477.952C891.143 477.777 891.375 477.69 891.635 477.69C891.895 477.69 892.128 477.777 892.333 477.952C892.538 478.122 892.64 478.385 892.64 478.74C892.64 479.025 892.55 479.272 892.37 479.482C892.19 479.687 891.945 479.79 891.635 479.79ZM892.49 489H890.78V481.02H892.49V489ZM896.843 491.91H895.118V481.02H896.843V482.4C897.453 481.44 898.383 480.96 899.633 480.96C900.753 480.96 901.668 481.325 902.378 482.055C903.088 482.785 903.443 483.78 903.443 485.04C903.443 485.54 903.371 486.03 903.226 486.51C903.086 486.985 902.863 487.415 902.558 487.8C902.258 488.18 901.868 488.485 901.388 488.715C900.908 488.945 900.333 489.06 899.663 489.06C898.393 489.06 897.453 488.58 896.843 487.62V491.91ZM899.273 487.59C900.033 487.59 900.628 487.33 901.058 486.81C901.488 486.29 901.703 485.68 901.703 484.98C901.703 484.28 901.491 483.675 901.066 483.165C900.641 482.655 900.043 482.4 899.273 482.4C898.503 482.4 897.906 482.652 897.481 483.157C897.056 483.662 896.843 484.27 896.843 484.98C896.843 485.81 897.078 486.452 897.548 486.907C898.018 487.362 898.593 487.59 899.273 487.59ZM908.568 489.06C907.668 489.06 906.916 488.877 906.311 488.512C905.706 488.147 905.251 487.66 904.946 487.05C904.641 486.44 904.488 485.765 904.488 485.025C904.488 484.145 904.666 483.407 905.021 482.812C905.421 482.177 905.923 481.712 906.528 481.417C907.138 481.122 907.803 480.97 908.523 480.96C911.033 480.96 912.288 482.32 912.288 485.04L912.258 485.67H906.228C906.418 486.375 906.733 486.885 907.173 487.2C907.618 487.51 908.128 487.665 908.703 487.665C909.563 487.665 910.313 487.355 910.953 486.735L911.868 487.71C911.038 488.61 909.938 489.06 908.568 489.06ZM910.758 484.41C910.688 483.7 910.451 483.177 910.046 482.842C909.641 482.507 909.138 482.34 908.538 482.34C907.838 482.34 907.293 482.532 906.903 482.917C906.513 483.302 906.278 483.8 906.198 484.41H910.758ZM915.782 489H914.057V481.02H915.782V482.61C916.372 481.51 917.292 480.96 918.542 480.96V482.61C917.672 482.61 917.009 482.81 916.554 483.21C916.099 483.61 915.842 484.15 915.782 484.83V489ZM924.521 489.06C923.251 489.06 922.311 488.58 921.701 487.62V489H919.976V477.87H921.701V482.4C922.311 481.44 923.241 480.96 924.491 480.96C925.611 480.96 926.526 481.325 927.236 482.055C927.946 482.785 928.301 483.78 928.301 485.04C928.301 485.54 928.229 486.03 928.084 486.51C927.944 486.985 927.721 487.415 927.416 487.8C927.116 488.18 926.726 488.485 926.246 488.715C925.766 488.945 925.191 489.06 924.521 489.06ZM924.131 487.59C924.891 487.59 925.486 487.33 925.916 486.81C926.346 486.29 926.561 485.68 926.561 484.98C926.561 484.28 926.349 483.675 925.924 483.165C925.499 482.655 924.901 482.4 924.131 482.4C923.361 482.4 922.764 482.652 922.339 483.157C921.914 483.662 921.701 484.27 921.701 484.98C921.701 485.81 921.936 486.452 922.406 486.907C922.876 487.362 923.451 487.59 924.131 487.59ZM932.212 489.075C931.312 489.075 930.62 488.827 930.135 488.332C929.65 487.837 929.407 487.26 929.407 486.6C929.407 485.93 929.647 485.375 930.127 484.935C930.607 484.495 931.372 484.25 932.422 484.2H934.837C934.837 483.85 934.802 483.575 934.732 483.375C934.532 482.695 933.932 482.355 932.932 482.355C932.172 482.355 931.387 482.625 930.577 483.165L929.872 481.965C930.882 481.295 932.027 480.96 933.307 480.96C934.437 480.96 935.257 481.222 935.767 481.747C936.277 482.272 936.532 482.945 936.532 483.765L936.547 489H934.852V488.025C934.252 488.725 933.372 489.075 932.212 489.075ZM932.572 487.71C933.262 487.71 933.797 487.565 934.177 487.275C934.557 486.985 934.777 486.625 934.837 486.195V485.46H932.677C931.577 485.46 931.027 485.805 931.027 486.495C931.027 486.915 931.175 487.222 931.47 487.417C931.765 487.612 932.132 487.71 932.572 487.71ZM939.712 479.79C939.457 479.79 939.224 479.7 939.014 479.52C938.809 479.335 938.707 479.075 938.707 478.74C938.707 478.385 938.809 478.122 939.014 477.952C939.219 477.777 939.452 477.69 939.712 477.69C939.972 477.69 940.204 477.777 940.409 477.952C940.614 478.122 940.717 478.385 940.717 478.74C940.717 479.025 940.627 479.272 940.447 479.482C940.267 479.687 940.022 479.79 939.712 479.79ZM940.567 489H938.857V481.02H940.567V489ZM950.649 489H948.609L946.269 485.34L944.919 486.765V489H943.194V477.87H944.919V484.59L948.444 481.02H950.424L947.469 484.11L950.649 489ZM952.837 479.79C952.582 479.79 952.349 479.7 952.139 479.52C951.934 479.335 951.832 479.075 951.832 478.74C951.832 478.385 951.934 478.122 952.139 477.952C952.344 477.777 952.577 477.69 952.837 477.69C953.097 477.69 953.329 477.777 953.534 477.952C953.739 478.122 953.842 478.385 953.842 478.74C953.842 479.025 953.752 479.272 953.572 479.482C953.392 479.687 953.147 479.79 952.837 479.79ZM953.692 489H951.982V481.02H953.692V489ZM956.124 490.755H954.654L959.409 476.76H960.879L956.124 490.755Z" fill="white"/>
<path d="M232.347 490.875H959.934V491.625H232.347V490.875Z" fill="white"/>
<a href="http://bemfis.mhs.unm.ac.id/2022/03/23/fenomena-pendidikan-di-indonesia-perlukah-diperbaiki/">
<rect fill="black" fill-opacity="0" x="59.3472" y="-1.125" width="727.587" height="17.25"/>
</a>
</svg>
