<svg width="1133" height="435" viewBox="0 0 1133 435" fill="none" xmlns="http://www.w3.org/2000/svg">
<path d="M140 0V372H1133" stroke="#4200FF" stroke-width="4"/>
<path d="M22.288 236.051C22.288 238.195 21.92 239.891 21.184 241.139C20.432 242.371 19.528 243.259 18.472 243.803L16.816 241.619C18.864 240.611 19.888 238.723 19.888 235.955C19.888 234.851 19.688 233.915 19.288 233.147C18.888 232.363 18.248 231.971 17.368 231.971C16.712 231.971 16.2 232.195 15.832 232.643C15.464 233.075 15.136 233.747 14.848 234.659C14.592 235.491 14.44 236.011 14.392 236.219C13.992 237.595 13.68 238.587 13.456 239.195C12.88 240.731 12.216 241.747 11.464 242.243C10.712 242.739 9.928 242.987 9.112 242.987C8.44 242.987 7.72 242.779 6.952 242.363C6.168 241.931 5.504 241.259 4.96 240.347C4.4 239.419 4.12 238.259 4.12 236.867C4.12 235.315 4.328 234.019 4.744 232.979C5.16 231.939 5.864 230.931 6.856 229.955L8.464 232.379C7.2 233.355 6.568 234.779 6.568 236.651C6.568 237.611 6.712 238.355 7 238.883C7.288 239.395 7.608 239.739 7.96 239.915C8.312 240.075 8.624 240.155 8.896 240.155C9.472 240.155 9.936 239.931 10.288 239.483C10.64 239.035 10.96 238.371 11.248 237.491C11.28 237.411 11.464 236.795 11.8 235.643C11.992 234.923 12.208 234.179 12.448 233.411C13.008 231.731 13.72 230.611 14.584 230.051C15.448 229.475 16.28 229.187 17.08 229.187C17.944 229.187 18.768 229.395 19.552 229.811C20.336 230.211 20.992 230.923 21.52 231.947C22.032 232.955 22.288 234.323 22.288 236.051ZM22 210.988V214.06L13.816 219.988L17.248 223.228H22V225.844H4.408V223.228H13.816L4.408 214.42V211.132L11.968 218.236L22 210.988ZM22.288 201.008C22.288 202.816 21.896 204.368 21.112 205.664C20.328 206.96 19.248 207.944 17.872 208.616C16.496 209.288 14.936 209.624 13.192 209.624C11.448 209.624 9.896 209.288 8.536 208.616C7.16 207.944 6.08 206.96 5.296 205.664C4.512 204.368 4.12 202.816 4.12 201.008C4.12 199.2 4.512 197.648 5.296 196.352C6.08 195.04 7.16 194.048 8.536 193.376C9.896 192.704 11.448 192.368 13.192 192.368C14.936 192.368 16.496 192.704 17.872 193.376C19.248 194.048 20.328 195.032 21.112 196.328C21.896 197.624 22.288 199.184 22.288 201.008ZM19.912 201.008C19.912 199.68 19.6 198.584 18.976 197.72C18.352 196.84 17.536 196.192 16.528 195.776C15.504 195.36 14.392 195.152 13.192 195.152C12.008 195.152 10.912 195.36 9.904 195.776C8.88 196.192 8.056 196.84 7.432 197.72C6.808 198.584 6.496 199.68 6.496 201.008C6.496 202.32 6.808 203.416 7.432 204.296C8.056 205.176 8.88 205.824 9.904 206.24C10.912 206.64 12.008 206.84 13.192 206.84C14.392 206.84 15.504 206.64 16.528 206.24C17.536 205.824 18.352 205.176 18.976 204.296C19.6 203.416 19.912 202.32 19.912 201.008ZM22 173.696V176.816L14.656 181.64V182.552V186.248H22V188.864H4.408V182.552V179.912C4.408 178.28 4.824 176.944 5.656 175.904C6.472 174.864 7.76 174.344 9.52 174.344C11.04 174.344 12.208 174.744 13.024 175.544C13.824 176.344 14.328 177.408 14.536 178.736L22 173.696ZM6.712 186.248H12.328V181.4C12.328 180.504 12.28 179.76 12.184 179.168C12.088 178.56 11.832 178.048 11.416 177.632C11 177.2 10.368 176.984 9.52 176.984C8.672 176.984 8.04 177.2 7.624 177.632C7.208 178.048 6.952 178.56 6.856 179.168C6.76 179.76 6.712 180.504 6.712 181.4V186.248Z" fill="url(#paint0_linear_84_2)"/>
<path d="M210.144 419.928V423H194.72V419.928C197.088 418.755 199.136 417.443 200.864 415.992C202.613 414.52 203.957 412.995 204.896 411.416C205.856 409.837 206.336 408.28 206.336 406.744C206.336 405.293 206.005 404.195 205.344 403.448C204.682 402.701 203.605 402.328 202.112 402.328C200.789 402.328 199.808 402.701 199.168 403.448C198.549 404.195 198.24 405.24 198.24 406.584C198.24 406.883 198.282 407.373 198.368 408.056H194.912C194.826 407.544 194.784 407 194.784 406.424C194.784 404.269 195.402 402.52 196.64 401.176C197.898 399.832 199.701 399.16 202.048 399.16C207.253 399.16 209.856 401.773 209.856 407C209.856 409.603 208.938 411.981 207.104 414.136C205.29 416.269 203.008 418.2 200.256 419.928H210.144ZM221.611 423.384C218.667 423.384 216.491 422.285 215.083 420.088C213.697 417.891 213.003 414.947 213.003 411.256C213.003 407.565 213.697 404.632 215.083 402.456C216.491 400.259 218.667 399.16 221.611 399.16C224.577 399.16 226.753 400.259 228.139 402.456C229.526 404.632 230.219 407.565 230.219 411.256C230.219 414.968 229.526 417.923 228.139 420.12C226.753 422.296 224.577 423.384 221.611 423.384ZM221.611 420.216C223.574 420.216 224.918 419.395 225.643 417.752C226.39 416.088 226.763 413.923 226.763 411.256C226.763 408.589 226.39 406.435 225.643 404.792C224.918 403.149 223.574 402.328 221.611 402.328C219.649 402.328 218.294 403.149 217.547 404.792C216.822 406.435 216.459 408.589 216.459 411.256C216.459 413.923 216.822 416.088 217.547 417.752C218.294 419.395 219.649 420.216 221.611 420.216ZM241.768 423.384C238.824 423.384 236.648 422.285 235.24 420.088C233.853 417.891 233.16 414.947 233.16 411.256C233.16 407.565 233.853 404.632 235.24 402.456C236.648 400.259 238.824 399.16 241.768 399.16C244.733 399.16 246.909 400.259 248.296 402.456C249.682 404.632 250.376 407.565 250.376 411.256C250.376 414.968 249.682 417.923 248.296 420.12C246.909 422.296 244.733 423.384 241.768 423.384ZM241.768 420.216C243.73 420.216 245.074 419.395 245.8 417.752C246.546 416.088 246.92 413.923 246.92 411.256C246.92 408.589 246.546 406.435 245.8 404.792C245.074 403.149 243.73 402.328 241.768 402.328C239.805 402.328 238.45 403.149 237.704 404.792C236.978 406.435 236.616 408.589 236.616 411.256C236.616 413.923 236.978 416.088 237.704 417.752C238.45 419.395 239.805 420.216 241.768 420.216ZM261.156 399.16C264.164 399.16 266.382 400.141 267.812 402.104C269.262 404.067 269.988 406.712 269.988 410.04C269.988 411.683 269.817 413.475 269.476 415.416C269.156 417.336 268.356 419.149 267.076 420.856C265.796 422.563 263.886 423.416 261.348 423.416C259.321 423.416 257.668 422.947 256.388 422.008C255.108 421.069 254.212 419.672 253.7 417.816L256.964 416.952C257.156 418.019 257.636 418.829 258.404 419.384C259.172 419.939 260.153 420.216 261.348 420.216C262.969 420.216 264.196 419.491 265.028 418.04C265.881 416.589 266.329 414.701 266.372 412.376C265.113 414.253 263.182 415.192 260.58 415.192C259.001 415.192 257.646 414.819 256.516 414.072C255.406 413.304 254.574 412.323 254.02 411.128C253.465 409.933 253.188 408.685 253.188 407.384C253.188 405.955 253.497 404.621 254.116 403.384C254.734 402.125 255.641 401.112 256.836 400.344C258.052 399.555 259.492 399.16 261.156 399.16ZM260.868 412.088C262.489 412.088 263.758 411.661 264.676 410.808C265.614 409.933 266.084 408.739 266.084 407.224V406.584C265.828 405.24 265.316 404.195 264.548 403.448C263.801 402.68 262.681 402.296 261.188 402.296C259.758 402.296 258.649 402.755 257.86 403.672C257.092 404.568 256.708 405.741 256.708 407.192C256.708 408.472 257.038 409.613 257.7 410.616C258.382 411.597 259.438 412.088 260.868 412.088Z" fill="white"/>
<path d="M439.331 419.928V423H423.907V419.928C426.275 418.755 428.323 417.443 430.051 415.992C431.801 414.52 433.145 412.995 434.083 411.416C435.043 409.837 435.523 408.28 435.523 406.744C435.523 405.293 435.193 404.195 434.531 403.448C433.87 402.701 432.793 402.328 431.299 402.328C429.977 402.328 428.995 402.701 428.355 403.448C427.737 404.195 427.427 405.24 427.427 406.584C427.427 406.883 427.47 407.373 427.555 408.056H424.099C424.014 407.544 423.971 407 423.971 406.424C423.971 404.269 424.59 402.52 425.827 401.176C427.086 399.832 428.889 399.16 431.235 399.16C436.441 399.16 439.043 401.773 439.043 407C439.043 409.603 438.126 411.981 436.291 414.136C434.478 416.269 432.195 418.2 429.443 419.928H439.331ZM450.799 423.384C447.855 423.384 445.679 422.285 444.271 420.088C442.884 417.891 442.191 414.947 442.191 411.256C442.191 407.565 442.884 404.632 444.271 402.456C445.679 400.259 447.855 399.16 450.799 399.16C453.764 399.16 455.94 400.259 457.327 402.456C458.713 404.632 459.407 407.565 459.407 411.256C459.407 414.968 458.713 417.923 457.327 420.12C455.94 422.296 453.764 423.384 450.799 423.384ZM450.799 420.216C452.761 420.216 454.105 419.395 454.831 417.752C455.577 416.088 455.951 413.923 455.951 411.256C455.951 408.589 455.577 406.435 454.831 404.792C454.105 403.149 452.761 402.328 450.799 402.328C448.836 402.328 447.481 403.149 446.735 404.792C446.009 406.435 445.647 408.589 445.647 411.256C445.647 413.923 446.009 416.088 446.735 417.752C447.481 419.395 448.836 420.216 450.799 420.216ZM467.275 423L467.307 405.432H462.731V403.096C464.31 403.096 465.579 402.787 466.539 402.168C467.52 401.528 468.118 400.579 468.331 399.32H470.763V423H467.275ZM493.081 419.928V423H477.657V419.928C480.025 418.755 482.073 417.443 483.801 415.992C485.551 414.52 486.895 412.995 487.833 411.416C488.793 409.837 489.273 408.28 489.273 406.744C489.273 405.293 488.943 404.195 488.281 403.448C487.62 402.701 486.543 402.328 485.049 402.328C483.727 402.328 482.745 402.701 482.105 403.448C481.487 404.195 481.177 405.24 481.177 406.584C481.177 406.883 481.22 407.373 481.305 408.056H477.849C477.764 407.544 477.721 407 477.721 406.424C477.721 404.269 478.34 402.52 479.577 401.176C480.836 399.832 482.639 399.16 484.985 399.16C490.191 399.16 492.793 401.773 492.793 407C492.793 409.603 491.876 411.981 490.041 414.136C488.228 416.269 485.945 418.2 483.193 419.928H493.081Z" fill="white"/>
<path d="M664.472 419.928V423H649.048V419.928C651.416 418.755 653.464 417.443 655.192 415.992C656.941 414.52 658.285 412.995 659.224 411.416C660.184 409.837 660.664 408.28 660.664 406.744C660.664 405.293 660.333 404.195 659.672 403.448C659.011 402.701 657.933 402.328 656.44 402.328C655.117 402.328 654.136 402.701 653.496 403.448C652.877 404.195 652.568 405.24 652.568 406.584C652.568 406.883 652.611 407.373 652.696 408.056H649.24C649.155 407.544 649.112 407 649.112 406.424C649.112 404.269 649.731 402.52 650.968 401.176C652.227 399.832 654.029 399.16 656.376 399.16C661.581 399.16 664.184 401.773 664.184 407C664.184 409.603 663.267 411.981 661.432 414.136C659.619 416.269 657.336 418.2 654.584 419.928H664.472ZM675.939 423.384C672.995 423.384 670.819 422.285 669.411 420.088C668.025 417.891 667.331 414.947 667.331 411.256C667.331 407.565 668.025 404.632 669.411 402.456C670.819 400.259 672.995 399.16 675.939 399.16C678.905 399.16 681.081 400.259 682.467 402.456C683.854 404.632 684.547 407.565 684.547 411.256C684.547 414.968 683.854 417.923 682.467 420.12C681.081 422.296 678.905 423.384 675.939 423.384ZM675.939 420.216C677.902 420.216 679.246 419.395 679.971 417.752C680.718 416.088 681.091 413.923 681.091 411.256C681.091 408.589 680.718 406.435 679.971 404.792C679.246 403.149 677.902 402.328 675.939 402.328C673.977 402.328 672.622 403.149 671.875 404.792C671.15 406.435 670.787 408.589 670.787 411.256C670.787 413.923 671.15 416.088 671.875 417.752C672.622 419.395 673.977 420.216 675.939 420.216ZM692.416 423L692.448 405.432H687.872V403.096C689.45 403.096 690.72 402.787 691.68 402.168C692.661 401.528 693.258 400.579 693.472 399.32H695.904V423H692.416ZM712.078 406.808C713.593 406.808 714.915 407.139 716.046 407.8C717.198 408.44 718.073 409.347 718.67 410.52C719.289 411.693 719.598 413.048 719.598 414.584C719.598 417.315 718.862 419.469 717.39 421.048C715.918 422.605 713.881 423.384 711.278 423.384C708.846 423.384 706.915 422.755 705.486 421.496C704.078 420.216 703.225 418.445 702.926 416.184L706.382 415.288C706.446 416.803 706.883 418.008 707.694 418.904C708.505 419.8 709.689 420.248 711.246 420.248C712.867 420.248 714.083 419.757 714.894 418.776C715.705 417.795 716.11 416.483 716.11 414.84C716.11 413.304 715.737 412.099 714.99 411.224C714.243 410.328 713.145 409.88 711.694 409.88C710.521 409.88 709.55 410.115 708.782 410.584C708.014 411.053 707.385 411.768 706.894 412.728L703.758 412.504L704.686 399.544H718.062V402.648H707.63L707.214 408.472C708.43 407.363 710.051 406.808 712.078 406.808Z" fill="white"/>
<path d="M890.238 419.928V423H874.814V419.928C877.182 418.755 879.23 417.443 880.958 415.992C882.707 414.52 884.051 412.995 884.99 411.416C885.95 409.837 886.43 408.28 886.43 406.744C886.43 405.293 886.099 404.195 885.438 403.448C884.776 402.701 883.699 402.328 882.206 402.328C880.883 402.328 879.902 402.701 879.262 403.448C878.643 404.195 878.334 405.24 878.334 406.584C878.334 406.883 878.376 407.373 878.462 408.056H875.006C874.92 407.544 874.878 407 874.878 406.424C874.878 404.269 875.496 402.52 876.734 401.176C877.992 399.832 879.795 399.16 882.142 399.16C887.347 399.16 889.95 401.773 889.95 407C889.95 409.603 889.032 411.981 887.198 414.136C885.384 416.269 883.102 418.2 880.35 419.928H890.238ZM901.705 423.384C898.761 423.384 896.585 422.285 895.177 420.088C893.79 417.891 893.097 414.947 893.097 411.256C893.097 407.565 893.79 404.632 895.177 402.456C896.585 400.259 898.761 399.16 901.705 399.16C904.67 399.16 906.846 400.259 908.233 402.456C909.62 404.632 910.313 407.565 910.313 411.256C910.313 414.968 909.62 417.923 908.233 420.12C906.846 422.296 904.67 423.384 901.705 423.384ZM901.705 420.216C903.668 420.216 905.012 419.395 905.737 417.752C906.484 416.088 906.857 413.923 906.857 411.256C906.857 408.589 906.484 406.435 905.737 404.792C905.012 403.149 903.668 402.328 901.705 402.328C899.742 402.328 898.388 403.149 897.641 404.792C896.916 406.435 896.553 408.589 896.553 411.256C896.553 413.923 896.916 416.088 897.641 417.752C898.388 419.395 899.742 420.216 901.705 420.216ZM918.181 423L918.213 405.432H913.637V403.096C915.216 403.096 916.485 402.787 917.445 402.168C918.427 401.528 919.024 400.579 919.237 399.32H921.669V423H918.181ZM941.524 410.488C942.868 411 943.966 411.757 944.819 412.76C945.673 413.741 946.1 415.021 946.1 416.6C946.1 418.179 945.673 419.48 944.819 420.504C943.988 421.507 942.9 422.243 941.556 422.712C940.233 423.16 938.836 423.384 937.364 423.384C935.892 423.384 934.494 423.16 933.172 422.712C931.849 422.243 930.761 421.507 929.908 420.504C929.076 419.48 928.66 418.179 928.66 416.6C928.66 415.021 929.086 413.741 929.94 412.76C930.793 411.757 931.892 411 933.236 410.488C932.084 410.04 931.145 409.421 930.42 408.632C929.716 407.821 929.364 406.808 929.364 405.592C929.364 404.077 929.748 402.84 930.516 401.88C931.284 400.92 932.276 400.227 933.492 399.8C934.708 399.373 935.998 399.16 937.364 399.16C938.729 399.16 940.02 399.373 941.236 399.8C942.452 400.227 943.444 400.92 944.212 401.88C944.98 402.84 945.364 404.077 945.364 405.592C945.364 406.808 945.001 407.821 944.276 408.632C943.572 409.421 942.654 410.04 941.524 410.488ZM937.364 402.264C935.593 402.264 934.366 402.616 933.684 403.32C933.001 404.024 932.66 404.792 932.66 405.624C932.66 406.435 933.012 407.181 933.716 407.864C934.42 408.547 935.636 408.888 937.364 408.888C939.092 408.888 940.308 408.547 941.012 407.864C941.716 407.181 942.068 406.435 942.068 405.624C942.068 404.792 941.726 404.024 941.044 403.32C940.361 402.616 939.134 402.264 937.364 402.264ZM937.364 420.216C939.284 420.216 940.617 419.811 941.364 419C942.132 418.168 942.516 417.272 942.516 416.312C942.516 415.757 942.366 415.203 942.068 414.648C941.769 414.072 941.236 413.581 940.468 413.176C939.7 412.749 938.665 412.536 937.364 412.536C936.062 412.536 935.028 412.749 934.26 413.176C933.513 413.581 932.99 414.072 932.692 414.648C932.393 415.203 932.244 415.757 932.244 416.312C932.244 417.272 932.617 418.168 933.364 419C934.11 419.811 935.444 420.216 937.364 420.216Z" fill="white"/>
<path d="M81.8344 338.68C83.029 339.149 83.9997 339.864 84.7464 340.824C85.5144 341.784 85.8984 343.043 85.8984 344.6C85.8984 346.179 85.493 347.48 84.6824 348.504C83.8717 349.507 82.8264 350.243 81.5464 350.712C80.2877 351.16 78.933 351.384 77.4824 351.384C76.053 351.384 74.709 351.16 73.4504 350.712C72.1917 350.243 71.157 349.507 70.3464 348.504C69.5357 347.48 69.1304 346.179 69.1304 344.6H72.7464C72.8317 345.539 73.2264 346.381 73.9304 347.128C74.6344 347.853 75.8184 348.216 77.4824 348.216C79.2744 348.216 80.4904 347.811 81.1304 347C81.7917 346.189 82.1224 345.293 82.1224 344.312C82.1224 343.779 81.9624 343.213 81.6424 342.616C81.3437 341.997 80.8424 341.475 80.1384 341.048C79.4557 340.6 78.5704 340.376 77.4824 340.376C76.501 340.376 75.7544 340.451 75.2424 340.6V337.304C75.541 337.389 76.2877 337.432 77.4824 337.432C78.485 337.432 79.3064 337.219 79.9464 336.792C80.5864 336.344 81.045 335.832 81.3224 335.256C81.5997 334.659 81.7384 334.115 81.7384 333.624C81.7384 332.771 81.4397 332.003 80.8424 331.32C80.245 330.616 79.125 330.264 77.4824 330.264C75.797 330.264 74.6557 330.616 74.0584 331.32C73.461 332.024 73.1624 332.792 73.1624 333.624C73.1624 333.901 73.173 334.072 73.1944 334.136H69.8344C69.7917 333.795 69.7704 333.528 69.7704 333.336C69.7704 332.312 70.037 331.331 70.5704 330.392C71.125 329.453 71.9784 328.685 73.1304 328.088C74.2824 327.469 75.733 327.16 77.4824 327.16C79.5944 327.16 81.4077 327.683 82.9224 328.728C84.437 329.752 85.1944 331.373 85.1944 333.592C85.1944 334.744 84.885 335.747 84.2664 336.6C83.6477 337.453 82.837 338.147 81.8344 338.68ZM98.3591 334.808C99.8738 334.808 101.196 335.139 102.327 335.8C103.479 336.44 104.354 337.347 104.951 338.52C105.57 339.693 105.879 341.048 105.879 342.584C105.879 345.315 105.143 347.469 103.671 349.048C102.199 350.605 100.162 351.384 97.5591 351.384C95.1271 351.384 93.1965 350.755 91.7671 349.496C90.3591 348.216 89.5058 346.445 89.2071 344.184L92.6631 343.288C92.7271 344.803 93.1645 346.008 93.9751 346.904C94.7858 347.8 95.9698 348.248 97.5271 348.248C99.1485 348.248 100.364 347.757 101.175 346.776C101.986 345.795 102.391 344.483 102.391 342.84C102.391 341.304 102.018 340.099 101.271 339.224C100.524 338.328 99.4258 337.88 97.9751 337.88C96.8018 337.88 95.8311 338.115 95.0631 338.584C94.2951 339.053 93.6658 339.768 93.1751 340.728L90.0391 340.504L90.9671 327.544H104.343V330.648H93.9111L93.4951 336.472C94.7111 335.363 96.3325 334.808 98.3591 334.808ZM117.689 351.384C114.745 351.384 112.569 350.285 111.161 348.088C109.775 345.891 109.081 342.947 109.081 339.256C109.081 335.565 109.775 332.632 111.161 330.456C112.569 328.259 114.745 327.16 117.689 327.16C120.655 327.16 122.831 328.259 124.217 330.456C125.604 332.632 126.297 335.565 126.297 339.256C126.297 342.968 125.604 345.923 124.217 348.12C122.831 350.296 120.655 351.384 117.689 351.384ZM117.689 348.216C119.652 348.216 120.996 347.395 121.721 345.752C122.468 344.088 122.841 341.923 122.841 339.256C122.841 336.589 122.468 334.435 121.721 332.792C120.996 331.149 119.652 330.328 117.689 330.328C115.727 330.328 114.372 331.149 113.625 332.792C112.9 334.435 112.537 336.589 112.537 339.256C112.537 341.923 112.9 344.088 113.625 345.752C114.372 347.395 115.727 348.216 117.689 348.216Z" fill="white"/>
<path d="M85.392 205.392H88.496V208.496H85.392V214H81.904V208.496H70.96V205.392L82.928 190.256H85.392V205.392ZM81.904 196.432L74.8 205.392H81.904V196.432ZM99.7675 214.384C96.8235 214.384 94.6475 213.285 93.2395 211.088C91.8528 208.891 91.1595 205.947 91.1595 202.256C91.1595 198.565 91.8528 195.632 93.2395 193.456C94.6475 191.259 96.8235 190.16 99.7675 190.16C102.733 190.16 104.909 191.259 106.296 193.456C107.682 195.632 108.376 198.565 108.376 202.256C108.376 205.968 107.682 208.923 106.296 211.12C104.909 213.296 102.733 214.384 99.7675 214.384ZM99.7675 211.216C101.73 211.216 103.074 210.395 103.8 208.752C104.546 207.088 104.92 204.923 104.92 202.256C104.92 199.589 104.546 197.435 103.8 195.792C103.074 194.149 101.73 193.328 99.7675 193.328C97.8048 193.328 96.4502 194.149 95.7035 195.792C94.9782 197.435 94.6155 199.589 94.6155 202.256C94.6155 204.923 94.9782 207.088 95.7035 208.752C96.4502 210.395 97.8048 211.216 99.7675 211.216ZM119.924 214.384C116.98 214.384 114.804 213.285 113.396 211.088C112.009 208.891 111.316 205.947 111.316 202.256C111.316 198.565 112.009 195.632 113.396 193.456C114.804 191.259 116.98 190.16 119.924 190.16C122.889 190.16 125.065 191.259 126.452 193.456C127.838 195.632 128.532 198.565 128.532 202.256C128.532 205.968 127.838 208.923 126.452 211.12C125.065 213.296 122.889 214.384 119.924 214.384ZM119.924 211.216C121.886 211.216 123.23 210.395 123.956 208.752C124.702 207.088 125.076 204.923 125.076 202.256C125.076 199.589 124.702 197.435 123.956 195.792C123.23 194.149 121.886 193.328 119.924 193.328C117.961 193.328 116.606 194.149 115.86 195.792C115.134 197.435 114.772 199.589 114.772 202.256C114.772 204.923 115.134 207.088 115.86 208.752C116.606 210.395 117.961 211.216 119.924 211.216Z" fill="white"/>
<path d="M85.517 86.392H88.621V89.496H85.517V95H82.029V89.496H71.085V86.392L83.053 71.256H85.517V86.392ZM82.029 77.432L74.925 86.392H82.029V77.432ZM100.469 78.808C101.983 78.808 103.306 79.1387 104.437 79.8C105.589 80.44 106.463 81.3467 107.061 82.52C107.679 83.6933 107.989 85.048 107.989 86.584C107.989 89.3147 107.253 91.4693 105.781 93.048C104.309 94.6053 102.271 95.384 99.6685 95.384C97.2365 95.384 95.3058 94.7547 93.8765 93.496C92.4685 92.216 91.6152 90.4453 91.3165 88.184L94.7725 87.288C94.8365 88.8027 95.2738 90.008 96.0845 90.904C96.8952 91.8 98.0792 92.248 99.6365 92.248C101.258 92.248 102.474 91.7573 103.285 90.776C104.095 89.7947 104.501 88.4827 104.501 86.84C104.501 85.304 104.127 84.0987 103.381 83.224C102.634 82.328 101.535 81.88 100.085 81.88C98.9112 81.88 97.9405 82.1147 97.1725 82.584C96.4045 83.0533 95.7752 83.768 95.2845 84.728L92.1485 84.504L93.0765 71.544H106.453V74.648H96.0205L95.6045 80.472C96.8205 79.3627 98.4418 78.808 100.469 78.808ZM119.799 95.384C116.855 95.384 114.679 94.2853 113.271 92.088C111.884 89.8907 111.191 86.9467 111.191 83.256C111.191 79.5653 111.884 76.632 113.271 74.456C114.679 72.2587 116.855 71.16 119.799 71.16C122.764 71.16 124.94 72.2587 126.327 74.456C127.713 76.632 128.407 79.5653 128.407 83.256C128.407 86.968 127.713 89.9227 126.327 92.12C124.94 94.296 122.764 95.384 119.799 95.384ZM119.799 92.216C121.761 92.216 123.105 91.3947 123.831 89.752C124.577 88.088 124.951 85.9227 124.951 83.256C124.951 80.5893 124.577 78.4347 123.831 76.792C123.105 75.1493 121.761 74.328 119.799 74.328C117.836 74.328 116.481 75.1493 115.735 76.792C115.009 78.4347 114.647 80.5893 114.647 83.256C114.647 85.9227 115.009 88.088 115.735 89.752C116.481 91.3947 117.836 92.216 119.799 92.216Z" fill="white"/>
<path d="M223 196L450.5 205.5H684.5L922 260.5" stroke="#4200FF" stroke-width="4"/>
<path d="M924.288 277.68C925.482 278.149 926.453 278.864 927.2 279.824C927.968 280.784 928.352 282.043 928.352 283.6C928.352 285.179 927.946 286.48 927.135 287.504C926.325 288.507 925.28 289.243 924 289.712C922.741 290.16 921.386 290.384 919.936 290.384C918.506 290.384 917.162 290.16 915.904 289.712C914.645 289.243 913.61 288.507 912.799 287.504C911.989 286.48 911.584 285.179 911.584 283.6H915.2C915.285 284.539 915.68 285.381 916.384 286.128C917.088 286.853 918.272 287.216 919.936 287.216C921.728 287.216 922.944 286.811 923.584 286C924.245 285.189 924.576 284.293 924.576 283.312C924.576 282.779 924.416 282.213 924.096 281.616C923.797 280.997 923.296 280.475 922.592 280.048C921.909 279.6 921.024 279.376 919.936 279.376C918.954 279.376 918.208 279.451 917.696 279.6V276.304C917.994 276.389 918.741 276.432 919.936 276.432C920.938 276.432 921.76 276.219 922.4 275.792C923.04 275.344 923.498 274.832 923.776 274.256C924.053 273.659 924.192 273.115 924.192 272.624C924.192 271.771 923.893 271.003 923.296 270.32C922.698 269.616 921.578 269.264 919.936 269.264C918.25 269.264 917.109 269.616 916.512 270.32C915.914 271.024 915.616 271.792 915.616 272.624C915.616 272.901 915.626 273.072 915.648 273.136H912.288C912.245 272.795 912.224 272.528 912.224 272.336C912.224 271.312 912.49 270.331 913.024 269.392C913.578 268.453 914.432 267.685 915.584 267.088C916.736 266.469 918.186 266.16 919.936 266.16C922.048 266.16 923.861 266.683 925.376 267.728C926.89 268.752 927.648 270.373 927.648 272.592C927.648 273.744 927.338 274.747 926.72 275.6C926.101 276.453 925.29 277.147 924.288 277.68ZM931.308 266.544H946.732V269.648C944.258 272.805 942.338 275.888 940.972 278.896C939.628 281.883 938.498 285.584 937.58 290H933.676C934.636 285.669 935.916 281.883 937.516 278.64C939.138 275.376 940.951 272.379 942.956 269.648H931.308V266.544ZM954.306 290L954.338 272.432H949.762V270.096C951.341 270.096 952.61 269.787 953.57 269.168C954.552 268.528 955.149 267.579 955.362 266.32H957.794V290H954.306Z" fill="url(#paint1_linear_84_2)"/>
<path d="M671.084 183.68C672.279 184.149 673.25 184.864 673.996 185.824C674.764 186.784 675.148 188.043 675.148 189.6C675.148 191.179 674.743 192.48 673.932 193.504C673.122 194.507 672.076 195.243 670.796 195.712C669.538 196.16 668.183 196.384 666.732 196.384C665.303 196.384 663.959 196.16 662.7 195.712C661.442 195.243 660.407 194.507 659.596 193.504C658.786 192.48 658.38 191.179 658.38 189.6H661.996C662.082 190.539 662.476 191.381 663.18 192.128C663.884 192.853 665.068 193.216 666.732 193.216C668.524 193.216 669.74 192.811 670.38 192C671.042 191.189 671.372 190.293 671.372 189.312C671.372 188.779 671.212 188.213 670.892 187.616C670.594 186.997 670.092 186.475 669.388 186.048C668.706 185.6 667.82 185.376 666.732 185.376C665.751 185.376 665.004 185.451 664.492 185.6V182.304C664.791 182.389 665.538 182.432 666.732 182.432C667.735 182.432 668.556 182.219 669.196 181.792C669.836 181.344 670.295 180.832 670.572 180.256C670.85 179.659 670.988 179.115 670.988 178.624C670.988 177.771 670.69 177.003 670.092 176.32C669.495 175.616 668.375 175.264 666.732 175.264C665.047 175.264 663.906 175.616 663.308 176.32C662.711 177.024 662.412 177.792 662.412 178.624C662.412 178.901 662.423 179.072 662.444 179.136H659.084C659.042 178.795 659.02 178.528 659.02 178.336C659.02 177.312 659.287 176.331 659.82 175.392C660.375 174.453 661.228 173.685 662.38 173.088C663.532 172.469 664.983 172.16 666.732 172.16C668.844 172.16 670.658 172.683 672.172 173.728C673.687 174.752 674.444 176.373 674.444 178.592C674.444 179.744 674.135 180.747 673.516 181.6C672.898 182.453 672.087 183.147 671.084 183.68ZM686.265 172.16C689.273 172.16 691.492 173.141 692.921 175.104C694.372 177.067 695.097 179.712 695.097 183.04C695.097 184.683 694.926 186.475 694.585 188.416C694.265 190.336 693.465 192.149 692.185 193.856C690.905 195.563 688.996 196.416 686.457 196.416C684.43 196.416 682.777 195.947 681.497 195.008C680.217 194.069 679.321 192.672 678.809 190.816L682.073 189.952C682.265 191.019 682.745 191.829 683.513 192.384C684.281 192.939 685.262 193.216 686.457 193.216C688.078 193.216 689.305 192.491 690.137 191.04C690.99 189.589 691.438 187.701 691.481 185.376C690.222 187.253 688.292 188.192 685.689 188.192C684.11 188.192 682.756 187.819 681.625 187.072C680.516 186.304 679.684 185.323 679.129 184.128C678.574 182.933 678.297 181.685 678.297 180.384C678.297 178.955 678.606 177.621 679.225 176.384C679.844 175.125 680.75 174.112 681.945 173.344C683.161 172.555 684.601 172.16 686.265 172.16ZM685.977 185.088C687.598 185.088 688.868 184.661 689.785 183.808C690.724 182.933 691.193 181.739 691.193 180.224V179.584C690.937 178.24 690.425 177.195 689.657 176.448C688.91 175.68 687.79 175.296 686.297 175.296C684.868 175.296 683.758 175.755 682.969 176.672C682.201 177.568 681.817 178.741 681.817 180.192C681.817 181.472 682.148 182.613 682.809 183.616C683.492 184.597 684.548 185.088 685.977 185.088ZM697.918 172.544H713.342V175.648C710.867 178.805 708.947 181.888 707.582 184.896C706.238 187.883 705.107 191.584 704.19 196H700.286C701.246 191.669 702.526 187.883 704.126 184.64C705.747 181.376 707.56 178.379 709.566 175.648H697.918V172.544Z" fill="url(#paint2_linear_84_2)"/>
<path d="M442.038 182.68C443.232 183.149 444.203 183.864 444.95 184.824C445.718 185.784 446.102 187.043 446.102 188.6C446.102 190.179 445.696 191.48 444.885 192.504C444.075 193.507 443.03 194.243 441.75 194.712C440.491 195.16 439.136 195.384 437.686 195.384C436.256 195.384 434.912 195.16 433.654 194.712C432.395 194.243 431.36 193.507 430.549 192.504C429.739 191.48 429.334 190.179 429.334 188.6H432.95C433.035 189.539 433.43 190.381 434.134 191.128C434.838 191.853 436.022 192.216 437.686 192.216C439.478 192.216 440.694 191.811 441.334 191C441.995 190.189 442.326 189.293 442.326 188.312C442.326 187.779 442.166 187.213 441.846 186.616C441.547 185.997 441.046 185.475 440.342 185.048C439.659 184.6 438.774 184.376 437.686 184.376C436.704 184.376 435.958 184.451 435.446 184.6V181.304C435.744 181.389 436.491 181.432 437.686 181.432C438.688 181.432 439.51 181.219 440.15 180.792C440.79 180.344 441.248 179.832 441.526 179.256C441.803 178.659 441.942 178.115 441.942 177.624C441.942 176.771 441.643 176.003 441.046 175.32C440.448 174.616 439.328 174.264 437.686 174.264C436 174.264 434.859 174.616 434.262 175.32C433.664 176.024 433.366 176.792 433.366 177.624C433.366 177.901 433.376 178.072 433.398 178.136H430.038C429.995 177.795 429.974 177.528 429.974 177.336C429.974 176.312 430.24 175.331 430.774 174.392C431.328 173.453 432.182 172.685 433.334 172.088C434.486 171.469 435.936 171.16 437.686 171.16C439.798 171.16 441.611 171.683 443.126 172.728C444.64 173.752 445.398 175.373 445.398 177.592C445.398 178.744 445.088 179.747 444.47 180.6C443.851 181.453 443.04 182.147 442.038 182.68ZM457.218 171.16C460.226 171.16 462.445 172.141 463.874 174.104C465.325 176.067 466.05 178.712 466.05 182.04C466.05 183.683 465.88 185.475 465.538 187.416C465.218 189.336 464.418 191.149 463.138 192.856C461.858 194.563 459.949 195.416 457.41 195.416C455.384 195.416 453.73 194.947 452.45 194.008C451.17 193.069 450.274 191.672 449.762 189.816L453.026 188.952C453.218 190.019 453.698 190.829 454.466 191.384C455.234 191.939 456.216 192.216 457.41 192.216C459.032 192.216 460.258 191.491 461.09 190.04C461.944 188.589 462.392 186.701 462.434 184.376C461.176 186.253 459.245 187.192 456.642 187.192C455.064 187.192 453.709 186.819 452.578 186.072C451.469 185.304 450.637 184.323 450.082 183.128C449.528 181.933 449.25 180.685 449.25 179.384C449.25 177.955 449.56 176.621 450.178 175.384C450.797 174.125 451.704 173.112 452.898 172.344C454.114 171.555 455.554 171.16 457.218 171.16ZM456.93 184.088C458.552 184.088 459.821 183.661 460.738 182.808C461.677 181.933 462.146 180.739 462.146 179.224V178.584C461.89 177.24 461.378 176.195 460.61 175.448C459.864 174.68 458.744 174.296 457.25 174.296C455.821 174.296 454.712 174.755 453.922 175.672C453.154 176.568 452.77 177.741 452.77 179.192C452.77 180.472 453.101 181.613 453.762 182.616C454.445 183.597 455.501 184.088 456.93 184.088ZM478.823 179.352C480.401 179.352 481.745 179.736 482.855 180.504C483.964 181.251 484.796 182.221 485.351 183.416C485.905 184.611 486.183 185.859 486.183 187.16C486.183 188.589 485.873 189.933 485.255 191.192C484.636 192.429 483.719 193.443 482.503 194.232C481.308 195 479.879 195.384 478.215 195.384C475.228 195.384 473.009 194.403 471.559 192.44C470.129 190.477 469.415 187.832 469.415 184.504C469.415 182.861 469.575 181.08 469.895 179.16C470.236 177.219 471.047 175.405 472.327 173.72C473.607 172.013 475.516 171.16 478.055 171.16C482.129 171.16 484.679 173.016 485.703 176.728L482.439 177.592C482.247 176.525 481.767 175.715 480.999 175.16C480.252 174.605 479.271 174.328 478.055 174.328C476.433 174.328 475.196 175.053 474.343 176.504C473.511 177.955 473.073 179.843 473.031 182.168C474.289 180.291 476.22 179.352 478.823 179.352ZM478.183 192.248C479.612 192.248 480.721 191.8 481.511 190.904C482.3 189.987 482.695 188.803 482.695 187.352C482.695 186.072 482.353 184.941 481.671 183.96C481.009 182.957 479.964 182.456 478.535 182.456C476.913 182.456 475.633 182.893 474.695 183.768C473.777 184.621 473.319 185.805 473.319 187.32V187.96C473.575 189.304 474.076 190.36 474.823 191.128C475.591 191.875 476.711 192.248 478.183 192.248Z" fill="url(#paint3_linear_84_2)"/>
<path d="M206.376 172.392H209.48V175.496H206.376V181H202.888V175.496H191.944V172.392L203.912 157.256H206.376V172.392ZM202.888 163.432L195.784 172.392H202.888V163.432ZM220.752 181.384C217.808 181.384 215.632 180.285 214.224 178.088C212.837 175.891 212.144 172.947 212.144 169.256C212.144 165.565 212.837 162.632 214.224 160.456C215.632 158.259 217.808 157.16 220.752 157.16C223.717 157.16 225.893 158.259 227.28 160.456C228.667 162.632 229.36 165.565 229.36 169.256C229.36 172.968 228.667 175.923 227.28 178.12C225.893 180.296 223.717 181.384 220.752 181.384ZM220.752 178.216C222.715 178.216 224.059 177.395 224.784 175.752C225.531 174.088 225.904 171.923 225.904 169.256C225.904 166.589 225.531 164.435 224.784 162.792C224.059 161.149 222.715 160.328 220.752 160.328C218.789 160.328 217.435 161.149 216.688 162.792C215.963 164.435 215.6 166.589 215.6 169.256C215.6 171.923 215.963 174.088 216.688 175.752C217.435 177.395 218.789 178.216 220.752 178.216ZM247.628 177.928V181H232.204V177.928C234.572 176.755 236.62 175.443 238.348 173.992C240.097 172.52 241.441 170.995 242.38 169.416C243.34 167.837 243.82 166.28 243.82 164.744C243.82 163.293 243.489 162.195 242.828 161.448C242.167 160.701 241.089 160.328 239.596 160.328C238.273 160.328 237.292 160.701 236.652 161.448C236.033 162.195 235.724 163.24 235.724 164.584C235.724 164.883 235.767 165.373 235.852 166.056H232.396C232.311 165.544 232.268 165 232.268 164.424C232.268 162.269 232.887 160.52 234.124 159.176C235.383 157.832 237.185 157.16 239.532 157.16C244.737 157.16 247.34 159.773 247.34 165C247.34 167.603 246.423 169.981 244.588 172.136C242.775 174.269 240.492 176.2 237.74 177.928H247.628Z" fill="url(#paint4_linear_84_2)"/>
<defs>
<linearGradient id="paint0_linear_84_2" x1="0" y1="209" x2="41" y2="209" gradientUnits="userSpaceOnUse">
<stop stop-color="#D908FC"/>
<stop offset="1" stop-color="#28B2FF"/>
</linearGradient>
<linearGradient id="paint1_linear_84_2" x1="925.5" y1="266" x2="933" y2="290" gradientUnits="userSpaceOnUse">
<stop stop-color="#FF0606"/>
<stop offset="1" stop-color="#3220FF"/>
</linearGradient>
<linearGradient id="paint2_linear_84_2" x1="686" y1="167" x2="686" y2="226" gradientUnits="userSpaceOnUse">
<stop stop-color="#FFB72D"/>
<stop offset="1" stop-color="#FFB72D" stop-opacity="0"/>
</linearGradient>
<linearGradient id="paint3_linear_84_2" x1="458" y1="166" x2="458" y2="225" gradientUnits="userSpaceOnUse">
<stop stop-color="#FDCF2A"/>
<stop offset="1" stop-color="#FDCF2A" stop-opacity="0"/>
</linearGradient>
<linearGradient id="paint4_linear_84_2" x1="220" y1="152" x2="220" y2="211" gradientUnits="userSpaceOnUse">
<stop stop-color="#FFCD1C"/>
<stop offset="1" stop-color="#FFCD1C" stop-opacity="0"/>
</linearGradient>
</defs>
</svg>
